<svg xmlns="http://www.w3.org/2000/svg" viewBox="107.53 156.025 896.342 321.887">
  <defs>
    <clipPath id="clipPath18" clipPathUnits="userSpaceOnUse">
      <path id="path16" d="M 0,443.826 H 852 V 0 H 0 Z"/>
    </clipPath>
    <clipPath id="clipPath60" clipPathUnits="userSpaceOnUse">
      <path id="path58" d="M 0,443.826 H 852 V 0 H 0 Z"/>
    </clipPath>
  </defs>
  <g transform="matrix(1.3333330154418945, 0, 0, -1.3333330154418945, 0, 591.7680053710936)" id="g10">
    <g id="g12">
      <g clip-path="url(#clipPath18)" id="g14">
        <g transform="translate(366.9551,206.915)" id="g20">
          <path id="path22" style="fill:#00259a;fill-opacity:1;fill-rule:nonzero;stroke:none" d="m 0,0 c -25.953,0 -32.509,17.313 -32.509,34.305 l -0.004,83.142 H -8.189 V 88.396 H 5.252 V 70.354 H -8.189 V 41.685 c 0,-9.479 2.197,-18.864 13.441,-18.864 V 0.35 C 3.56,0.114 1.833,0 0,0"/>
        </g>
        <g transform="translate(230.5068,275.6973)" id="g24">
          <path id="path26" style="fill:#00259a;fill-opacity:1;fill-rule:nonzero;stroke:none" d="m 0,0 c -14.541,0 -22.388,-12.019 -22.388,-23.328 0,-9.584 6.995,-22.859 22.545,-22.859 10.49,0 16.1,5.52 18.959,10.152 2.134,3.351 3.395,7.236 3.739,11.536 0.32,4.003 -0.469,8.121 -2.282,11.911 C 18.348,-7.888 12.714,0 0,0 m -3.77,-68.782 c -12.836,0 -23.768,4.723 -31.616,13.659 -7.304,8.318 -11.325,19.72 -11.325,32.108 0,13.35 4.473,24.879 12.935,33.342 7.912,7.911 18.569,12.269 30.006,12.269 15.665,0 22.717,-8.286 25.023,-11.85 L 22.858,8.265 V 19.614 H 47.18 V -65.8 H 22.858 v 11.918 l -1.636,-2.943 C 16.325,-65.642 5.1,-68.782 -3.77,-68.782"/>
        </g>
        <path id="path28" style="fill:#00259a;fill-opacity:1;fill-rule:nonzero;stroke:none" d="m 293.903,324.362 h 24.324 V 209.897 h -24.324 z"/>
        <path id="path30" style="fill:#00259a;fill-opacity:1;fill-rule:nonzero;stroke:none" d="m 383.991,295.312 h 24.324 v -85.414 h -24.324 z"/>
        <path id="path32" style="fill:#00259a;fill-opacity:1;fill-rule:nonzero;stroke:none" d="m 383.991,324.362 h 24.324 v -17.267 h -24.324 z"/>
        <g transform="translate(464.9004,207.0713)" id="g34">
          <path id="path36" style="fill:#00259a;fill-opacity:1;fill-rule:nonzero;stroke:none" d="m 0,0 c -25.665,0 -45.77,20.104 -45.77,45.768 0,25.488 19.829,45.454 45.141,45.454 21.959,0 40.343,-14.273 45.086,-34.845 H 19.706 c -4.029,8.129 -10.55,12.249 -19.393,12.249 -0.334,0.019 -0.709,0.027 -1.08,0.027 -5.69,0 -10.751,-2.223 -14.636,-6.432 -3.8,-4.294 -5.886,-10.187 -5.886,-16.61 0,-13.55 8.883,-23.014 21.602,-23.014 8.724,0 15.064,3.802 19.365,11.621 H 44.58 C 39.261,14.015 21.086,0 0,0"/>
        </g>
        <g transform="translate(551.9248,206.915)" id="g38">
          <path id="path40" style="fill:#00259a;fill-opacity:1;fill-rule:nonzero;stroke:none" d="M 0,0 C -26.146,0 -31.634,18.91 -31.757,34.772 V 88.396 H -7.311 V 41.685 c 0,-8.816 1.67,-18.932 14.693,-18.932 14.295,0 15.948,10.893 15.948,19.088 V 88.396 H 47.654 V 2.982 H 25.056 v 11.15 L 23.47,11.879 C 20.498,7.654 15.113,0 0,0"/>
        </g>
        <g transform="translate(723.5244,209.8975)" id="g42">
          <path id="path44" style="fill:#00259a;fill-opacity:1;fill-rule:nonzero;stroke:none" d="m 0,0 v 45.453 c 0,3.591 0,8.507 -1.801,12.601 -1.932,5.023 -6.116,7.59 -12.421,7.59 -8.225,0 -11.805,-4.213 -13.361,-7.748 -1.959,-4.078 -1.959,-8.701 -1.959,-11.185 V 0 h -24.323 v 46.555 c 0,2.472 0,7.076 -1.634,11.158 -2.258,5.342 -6.27,7.931 -12.273,7.931 -6.651,0 -11.251,-2.765 -13.675,-8.214 -1.959,-4.409 -1.959,-9.331 -1.959,-11.977 V 0 h -24.324 v 85.414 h 23.224 v -8.786 c 0.162,0.491 2.572,3.02 6.127,5.831 3.258,2.716 9.087,5.937 18.46,5.937 7.719,0 14.216,-2.709 19.314,-8.052 1.91,-1.912 3.554,-4.207 5.04,-7.03 l 0.695,-1.32 0.809,1.253 c 2.003,3.096 4.005,5.502 6.123,7.357 5.693,5.172 12.682,7.792 20.783,7.792 5.279,0 15.195,-1.108 22.298,-8.524 8.101,-8.569 9.181,-14.429 9.181,-33.161 L 24.324,0 Z"/>
        </g>
        <g transform="translate(128.2725,229.5107)" id="g46">
          <path id="path48" style="fill:#00259a;fill-opacity:1;fill-rule:nonzero;stroke:none" d="m 0,0 c -12.789,0 -22.073,9.811 -22.073,23.328 0,11.082 7.902,22.859 22.545,22.859 13.731,0 22.229,-11.866 22.229,-23.015 C 22.701,11.782 14.21,0 0,0 m 5.025,68.782 c -10.376,0 -18.67,-3.235 -24.646,-9.617 L -21.13,57.553 V 94.851 H -45.454 V -19.613 h 23.225 v 11.661 l 1.629,-2.833 c 3.38,-5.879 12.275,-11.811 24.526,-11.811 20.757,0 43.099,14.469 43.099,46.239 0,33.118 -25.118,45.139 -42,45.139"/>
        </g>
      </g>
    </g>
    <path id="path50" style="fill:#ffd600;fill-opacity:1;fill-rule:nonzero;stroke:none" d="M 506.432,164.651 H 82.818 V 178 h 423.614 z"/>
    <path id="path52" style="fill:#ffd600;fill-opacity:1;fill-rule:nonzero;stroke:none" d="M 747.848,164.651 H 655.69 V 178 h 92.158 z"/>
    <g id="g54">
      <g clip-path="url(#clipPath60)" id="g56">
        <g transform="translate(557.9194,143.2666)" id="g62">
          <path id="path64" style="fill:#00259a;fill-opacity:1;fill-rule:nonzero;stroke:none" d="m 0,0 c 6.138,-1.456 11.124,-4.304 14.96,-8.547 3.836,-4.242 5.755,-9.556 5.755,-15.937 0,-8.495 -2.873,-15.168 -8.616,-20.023 -5.745,-4.853 -12.783,-7.28 -21.115,-7.28 -6.473,0 -12.276,1.497 -17.413,4.49 -5.138,2.99 -8.84,7.359 -11.103,13.105 l 11.891,6.917 c 2.507,-7.281 8.049,-10.921 16.625,-10.921 4.854,0 8.696,1.232 11.529,3.701 2.831,2.466 4.247,5.803 4.247,10.011 0,4.206 -1.416,7.524 -4.247,9.951 -2.833,2.427 -6.675,3.64 -11.529,3.64 h -3.155 l -5.582,8.372 18.324,24.149 h -35.555 v 13.105 h 52.18 l -0.01,-11.884 z"/>
        </g>
        <g transform="translate(614.8921,145.9639)" id="g66">
          <path id="path68" style="fill:#00259a;fill-opacity:1;fill-rule:nonzero;stroke:none" d="m 0,0 c 8.13,0 15.002,-2.408 20.613,-7.22 5.61,-4.814 8.416,-11.467 8.416,-19.962 0,-8.494 -2.873,-15.168 -8.615,-20.022 -5.746,-4.854 -12.784,-7.28 -21.116,-7.28 -6.715,0 -12.661,1.557 -17.838,4.671 -5.177,3.113 -8.858,7.625 -11.042,13.531 l 12.013,6.917 c 2.264,-7.688 7.888,-11.529 16.867,-11.529 4.773,0 8.596,1.233 11.468,3.702 2.871,2.465 4.308,5.802 4.308,10.01 0,4.206 -1.416,7.525 -4.247,9.952 -2.833,2.426 -6.595,3.64 -11.285,3.64 h -24.755 l 3.575,45.626 H 25.388 V 18.931 H -9.074 L -10.733,0 Z"/>
        </g>
        <g transform="translate(678.1562,153.7305)" id="g70">
          <path id="path72" style="fill:#00259a;fill-opacity:1;fill-rule:nonzero;stroke:none" d="m 0,0 v -20.937 h -3.44 v 14.924 l -6.371,-10.528 -0.417,0.001 -6.372,10.56 v -14.957 h -3.44 V 0 h 3.708 L -10.016,-10.467 -3.683,0 Z"/>
        </g>
        <g transform="translate(688.7749,136.083)" id="g74">
          <path id="path76" style="fill:#00259a;fill-opacity:1;fill-rule:nonzero;stroke:none" d="M 0,0 H 9.272 V -3.29 H -3.44 V 17.647 H 9.123 v -3.29 H 0 V 8.914 H 8.375 V 5.653 L 0,5.653 Z"/>
        </g>
        <g transform="translate(717.7876,153.7305)" id="g78">
          <path id="path80" style="fill:#00259a;fill-opacity:1;fill-rule:nonzero;stroke:none" d="m 0,0 v -3.29 h -5.892 v -17.647 h -3.44 V -3.29 h -5.922 V 0 Z"/>
        </g>
        <g transform="translate(726.2227,140.2402)" id="g82">
          <path id="path84" style="fill:#00259a;fill-opacity:1;fill-rule:nonzero;stroke:none" d="M 0,0 H 6.634 L 3.325,9.452 Z M 9.243,-7.447 7.766,-3.229 H -1.138 L -2.602,-7.447 H -6.341 L 1.256,13.49 h 4.128 l 7.567,-20.937 z"/>
        </g>
        <path id="path86" style="fill:#00259a;fill-opacity:1;fill-rule:nonzero;stroke:none" d="m 744.409,153.73 h 3.439 v -20.937 h -3.439 z"/>
      </g>
    </g>
  </g>
</svg>