<svg
   version="1.1"
   id="svg2"
   xml:space="preserve"
   width="219.99998"
   height="71.895721"
   viewBox="0 0 219.99998 71.89572"
   sodipodi:docname="klaipedos_diena.svg"
   inkscape:version="1.1.2 (b8e25be833, 2022-02-05)"
   xmlns:inkscape="http://www.inkscape.org/namespaces/inkscape"
   xmlns:sodipodi="http://sodipodi.sourceforge.net/DTD/sodipodi-0.dtd"
   xmlns="http://www.w3.org/2000/svg"
   xmlns:svg="http://www.w3.org/2000/svg"><defs
     id="defs6" /><sodipodi:namedview
     id="namedview4"
     pagecolor="#505050"
     bordercolor="#ffffff"
     borderopacity="1"
     inkscape:pageshadow="0"
     inkscape:pageopacity="0"
     inkscape:pagecheckerboard="1"
     showgrid="false"
     inkscape:zoom="1.0289025"
     inkscape:cx="51.025242"
     inkscape:cy="138.01113"
     inkscape:window-width="1920"
     inkscape:window-height="971"
     inkscape:window-x="0"
     inkscape:window-y="27"
     inkscape:window-maximized="1"
     inkscape:current-layer="g8" /><g
     id="g8"
     inkscape:groupmode="layer"
     inkscape:label="ink_ext_XXXXXX"
     transform="matrix(1.3333333,0,0,-1.3333333,0,243.21465)"><g
       id="g10"
       transform="matrix(0.02956062,0,0,0.02956062,0,128.48917)"><path
         d="m 5275,874.984 c -1.55,-34.269 -17.12,-48.23 -59.2,-48.23 -6.2,0 -13.17,0.789 -19.46,2.273 -42.01,10.164 -83.29,49.825 -83.29,100.469 0,42.039 36.59,78.654 83.29,99.684 25.69,11.62 55.28,18.68 82.54,18.68 z m 223.41,-70.043 v 0 494.429 c 0,116.76 -23.28,159.54 -148.6,159.54 -49.16,0 -102.07,-6.13 -153.47,-17.13 -140.12,-31.11 -267.09,-102.73 -267.09,-207.12 0,-37.36 110.59,-90.22 204.05,-41.22 10.13,5.45 26.46,99.66 17.9,168.21 14.81,5.4 30.38,7.01 45.14,4.62 45.95,-5.43 88.02,-42.04 86.46,-68.51 l -3.92,-174.38 c -25.66,0.79 -53.71,0 -82.54,-3.14 -143.25,-13.23 -302.87,-73.15 -302.87,-253.83 0,-87.18 70.05,-167.351 146.37,-167.351 46.76,0 102.8,17.921 156.5,42.031 27.25,12.461 54.52,27.25 78.66,41.238 7.8,-61.488 34.26,-77.078 66.17,-74.726 l 240.58,21.808 v 82.539 z m -925.7,70.043 v 0 c 0,-35.793 -28.06,-56.793 -73.96,-56.793 -14.79,0 -28.78,2.329 -42.83,6.957 -63.85,23.399 -116,102.004 -116,255.382 0,185.33 21,287.32 94.21,287.32 7.77,-0.8 14.82,-1.58 21.79,-3.12 72.4,-11.64 116.79,-64.59 116.79,-101.21 z m 220.35,878.266 v 0 l -324.7,-31.9 v -88.01 l 96.54,-16.33 7.81,-171.32 c -24.95,4.7 -77.9,9.36 -116.79,10.13 h -6.97 c -161.95,0 -335.61,-119.9 -335.61,-390.82 0,-214.195 63.07,-365.941 219.58,-365.941 45.11,0 85.62,8.543 123,20.23 45.18,14.82 84.9,35.082 121.46,54.449 l 5.41,-68.488 295.91,24.16 v 82.539 l -85.64,-7.008 z M 3766.88,1512.66 v 0 h 4.66 c 74.73,0 137.84,82.54 137.84,168.2 0,85.57 -52.97,143.25 -131.58,143.25 -3.92,0 -7.81,-0.77 -10.92,-0.77 -70.09,-7.8 -126.12,-86.46 -126.12,-168.22 0,-84.08 49.83,-140.08 126.12,-142.46 z m 0,-136.31 v 0 c 2.31,0.84 5.43,0.84 8.52,0.84 59.99,0 70.87,-63.05 77.13,-195.44 1.55,-23.34 -3.93,-38.91 -28.83,-38.91 h -143.24 c 3.89,175.99 35.78,228.95 86.42,233.51 z m 92.6,-550.42 v 0 c -27.17,0 -61.47,4.679 -92.6,25.785 -42.83,27.996 -78.63,85.574 -84.9,202.375 h 382.33 c 17.09,0 18.68,10.14 17.09,34.27 -11.69,284.2 -153.34,369.82 -297.36,369.82 h -17.16 c -152.62,-8.56 -321.54,-128.49 -321.54,-397.89 0,-239.052 118.31,-367.481 309.85,-367.481 3.87,0 7.8,0.82 11.69,0.82 133.12,3.832 254.59,87.172 317.68,168.16 l -53.05,49.836 C 3977.89,861.789 3928.81,825.93 3859.48,825.93 Z M 3092.6,776.859 v 0 c -3.89,0 -8.53,0.821 -13.24,1.653 -55.29,11.629 -116.77,72.293 -116.77,114.422 v 379.156 c 0,37.39 22.59,59.2 68.54,59.2 17.11,0 32.65,-3.16 48.23,-7.84 67.01,-23.31 116.02,-99.62 116.02,-259.22 0,-186.132 -23.38,-287.371 -102.78,-287.371 z m 110.59,672.761 v 0 c -44.39,0 -86.46,-8.59 -123.83,-20.3 -45.95,-13.96 -86.46,-34.23 -122.2,-52.97 l -6.26,77.12 -298.19,-18.65 v -92.67 l 86.42,-46.68 V 509.078 l -86.42,-21.039 v -75.5 h 418.89 v 82.5 l -103.61,7.012 -5.4,202.429 c 30.31,-6.21 51.35,-11.671 112.89,-11.671 h 3.88 c 172.1,1.543 342.57,124.64 342.57,393.991 0,285.76 -84.1,362.82 -218.74,362.82 z m -642.34,1.52 v 0 l -322.36,-18.66 v -85.62 l 98.87,-46.72 V 791.719 l -98.87,-14.039 v -75.578 h 407.98 v 75.578 l -85.62,6.961 z m -118.38,58.38 v 0 c 70.89,0 131.63,80.21 131.63,161.98 0,81 -49.82,135.42 -124.59,135.42 -71.65,0 -130.84,-80.15 -130.84,-161.1 0,-81.78 49.06,-136.3 123.8,-136.3 z M 1906.81,863.344 v 0 c -1.57,-34.317 -17.06,-48.242 -59.16,-48.242 -7.04,0 -13.22,0.738 -20.25,2.347 -41.27,9.305 -82.54,49.789 -82.54,100.356 0,42.05 35.81,78.656 82.54,99.685 26.48,11.69 55.22,18.69 83.28,18.69 z m 223.49,423.526 v 0 c 0,117.53 -24.13,160.4 -148.73,160.4 -49.04,0 -102.79,-6.24 -154.17,-17.13 -139.34,-31.15 -267.1,-102.78 -267.1,-207.1 0,-37.38 110.58,-90.34 204,-41.29 10.97,5.46 26.52,99.7 18.66,168.18 14.85,5.45 29.66,7.02 44.44,4.68 46.74,-5.5 88.01,-42.01 87.21,-68.54 l -3.93,-174.39 c -26.47,0.78 -54.47,-0.79 -83.28,-3.07 -142.47,-13.29 -302.09,-73.21 -302.09,-253.821 0,-87.238 69.26,-167.391 145.57,-167.391 46.76,0 103.59,17.852 156.52,42.012 28.1,12.399 54.54,26.481 79.41,41.262 7.8,-61.481 33.46,-77.043 65.39,-74.75 l 240.59,21.808 v 82.54 l -82.49,-7.008 z m -713.22,455.51 v 0 l -322.37,-34.31 v -84.06 l 99.73,-16.35 V 790.141 l -86.43,-14.84 v -75.442 h 402.5 v 75.442 l -93.43,7.84 z M 610.449,1342.92 v 0 l 323.926,302.9 96.505,12.45 v 90.29 H 683.652 v -90.29 l 118.36,-7.83 -410.313,-393.87 V 1652 l 106.637,6.27 v 90.29 H 0 v -90.29 L 111.41,1652 V 789.371 L 0,783.141 v -83.282 h 499.91 v 84.782 l -108.211,4.73 v 347.239 l 36.559,33.51 C 545.805,956.02 632.223,848.547 675.852,789.371 725.727,722.398 783.316,704.48 987.297,699.859 l 70.083,-1.589 v 79.41 c -91.857,45.129 -162.747,149.472 -446.931,565.24"
         style="fill:#231f20;fill-opacity:1;fill-rule:nonzero;stroke:none"
         id="path12" /><path
         d="m 2387.22,180.512 c 27.18,-26.473 57.57,-54.512 87.19,-77.821 11.68,-7.8707 24.93,-13.2808 38.14,-17.1715 17.9,-2.3398 20.28,-14.0312 25.69,-28 6.2,-6.2304 13.28,-8.5898 21.78,-10.9804 7.85,-9.3008 21.02,-17.8672 32.73,-22.5274 11.7,-29.57029 63.85,-33.5117 76.29,-2.3515 13.22,7.7812 24.15,13.2382 33.52,24.8789 10.92,2.3906 18.67,5.5 23.33,15.6015 8.6,25.7188 22.57,21.0391 43.62,30.3789 11.65,5.461 23.29,13.2615 33.47,21.7425 21.81,25.769 61.56,45.187 77.08,75.597 13.25,15.52 26.46,12.461 30.37,36.61 -0.83,6.191 -2.35,12.441 0,17.883 10.86,16.398 35.84,54.507 52.93,58.398 h 16.38 c -3.89,-11.738 -7.02,-17.918 -1.56,-28.07 0,-24.102 2.27,-23.328 14.72,-38.871 -16.3,-16.387 -27.22,-13.278 -23.33,-40.539 l 3.9,-20.2 c 5.46,2.301 14.82,6.192 19.43,9.328 -4.61,-20.289 11.73,-28.019 24.97,-37.367 3.88,7.008 16.37,27.27 16.37,35.797 l 15.54,-8.527 c 14.8,24.879 5.47,45.918 -16.37,62.301 3.9,5.449 9.36,11.66 13.29,15.57 0,9.297 2.27,20.969 -3.14,28.769 h 2.33 l 3.89,0.77 c 0,8.578 3.11,35.09 -3.08,40.5 -2.36,3.918 -7.05,9.348 -9.39,13.258 h -0.78 c 3.12,6.211 8.6,10.851 10.87,15.562 h 15.62 c -0.75,12.41 -2.36,23.297 -2.36,34.989 -5.41,3.121 -13.26,7.05 -17.1,11.652 0,7.019 -5.43,11.707 -10.15,17.168 3.12,6.23 5.48,14.851 7.76,21.031 -5.41,2.348 -11.61,5.438 -17.1,7 v 14.809 c -9.36,0 -19.44,-1.52 -28.78,-1.52 -2.39,9.301 -5.48,21.781 -7.8,31.879 -9.31,-5.41 -21,-11.687 -30.33,-17.148 l -10.89,17.918 -12.46,-17.918 -0.79,3.918 -6.28,20.23 c -3.05,-4.641 -7.78,-8.519 -11.68,-13.98 -0.72,28.793 -4.63,69.25 -31.11,83.3 v 0.782 l 2.32,2.3 h 0.75 l 7.86,3.93 c -5.5,10.891 -8.61,10.891 -21.06,13.988 -37.35,17.11 -45.16,104.282 -72.44,135.481 -13.19,17.91 -13.98,28.031 -10.1,41.269 -28.82,19.481 -42.82,59.129 -59.95,91.079 -6.2,11.679 -20.22,22.57 -27.22,33.484 -7.04,1.562 -18.73,10.91 -25.73,14.016 l 2.32,0.773 c 1.56,6.961 2.37,27.254 4.68,31.148 3.12,3.157 10.93,13.977 9.37,19.485 7.01,10.125 -8.57,45.926 -19.42,50.626 -7.85,4.61 -20.29,10.07 -28.86,11.66 -13.21,0 -41.29,3.85 -53.72,-2.33 -5.45,-4.72 -17.16,-14.851 -18.65,-21.823 -2.39,-17.118 -13.25,-19.481 -10.17,-38.133 1.52,-4.688 5.46,-11.692 1.52,-15.598 2.42,-8.555 4.74,-14.781 10.14,-21.016 l 3.92,-0.781 1.53,2.324 c 0,-5.437 0,-13.21 2.4,-18.621 -24.94,-7.824 -21.83,-20.304 -35.87,-42.109 -9.33,-14.746 -14.02,-26.438 -14.74,-43.602 -9.39,-15.543 -14.84,-29.55 -20.28,-47.41 -25.67,-6.222 -42.79,-31.191 -58.36,-49.871 -26.5,-40.519 -22.61,-105.148 -66.24,-130.051 -11.65,-3.097 -13.98,-4.64 -19.41,-14.769 3.89,-2.379 9.29,-4.68 12.49,-6.231 -28.9,-15.578 -31.98,-60.738 -32.7,-89.55 -3.1,9.339 -7.81,12.441 -14.1,20.23 -1.55,-7 -4.64,-15.57 -5.4,-22.578 l -1.56,-0.801 -3.88,6.281 -7.04,10.868 -10.96,-17.149 -0.65,-0.769 c -8.65,4.687 -21.11,11.738 -29.67,17.148 -2.32,-9.348 -5.43,-23.309 -7.8,-31.879 -9.34,0 -19.45,1.52 -28.78,1.52 v -14.809 c -4.68,-1.562 -13.25,-3.859 -17.89,-6.23 2.32,-5.411 5.44,-17.922 8.57,-22.571 -5.48,-4.691 -10.89,-9.379 -10.89,-17.082 -3.12,-3.136 -12.49,-7.847 -16.37,-10.968 -0.76,-11.692 -2.36,-24.149 -3.11,-34.989 19.48,0 17.07,0 27.24,-15.562 -16.41,-16.328 -13.25,-27.258 -13.25,-53.758 l 3.93,-0.77 h 1.56 c -5.49,-6.261 -3.12,-20.191 -3.12,-28.769 4.68,-3.91 10.08,-10.121 14.01,-15.57 -21.82,-14.813 -31.18,-37.422 -17.14,-62.301 l 16.33,8.527 c 0,-7.758 12.45,-28.789 15.58,-36.566 13.99,12.437 29.59,16.347 24.92,38.886 5.45,-3.07 14.03,-7.777 20.26,-10.078 3.88,22.539 12.41,35.821 -7.84,52.129 l -3.84,3.16 -8.58,5.45 c 12.42,12.453 14.77,17.882 14.77,38.871 7.04,10.922 2.38,14.832 0,26.5 l -0.74,1.57 c 22.5,0 21.85,-1.57 37.37,-17.918 12.42,-13.262 22.58,-29.594 33.48,-43.641 0,-31.07 3.11,-28.019 24.09,-46.711 2.35,-4.621 6.23,-9.332 9.39,-13.968"
         style="fill:#ffffff;fill-opacity:1;fill-rule:nonzero;stroke:none"
         id="path14" /><path
         d="m 2633.26,646.871 c -6.21,0 -10.12,-3.891 -17.92,-2.34 -13.29,3.129 -17.14,10.09 -27.33,6.231 -12.42,-4.66 -25.64,-12.453 -36.49,-21.762 -35.89,-31.961 -55.33,-107.461 -53.74,-169.77 0.76,-70.82 25.66,-151.839 55.27,-180.628 9.32,-9.383 24.9,-12.493 33.43,-15.563 16.41,0 28.86,11.691 45.9,11.691 16.41,0 31.26,-14.031 47.56,-14.031 10.92,2.34 28.01,14.75 38.94,31.922 24.94,34.277 45.14,112.891 45.14,172.109 0,65.34 -10.08,126.079 -46.7,161.098 -11.66,10.141 -17.9,17.152 -36.62,24.113 -13.22,4.68 -5.37,-1.5 -27.99,-6.961 -8.55,-2.32 -12.48,3.891 -19.45,3.891"
         style="fill:#ed1c24;fill-opacity:1;fill-rule:nonzero;stroke:none"
         id="path16" /><path
         d="m 2611.42,692.031 c 0,0 -1.64,1.528 -3.7,4.129 1.17,-1.762 2.44,-3.191 3.7,-4.129 z m -13.22,30.367 v 0 c -1.56,0 0,-2.339 0.76,-3.136 1.76,-8.114 4.81,-17.09 8.48,-22.731 -3.36,4.379 -8,12.367 -10.8,27.418 -1.46,-3.129 0,-10.129 3.14,-17.097 3.11,-6.993 7.78,-14.043 11.64,-18.68 5.47,2.289 21.01,0 17.92,0 -4.72,0 -17.13,35 -13.21,35 l 7.01,4.707 c -1.57,4.68 0.8,7.75 0,12.41 l -8.61,-6.18 c -5.4,-3.937 -13.96,0 -20.25,0 0,-11.711 19.54,-10.16 3.92,-11.711 z m -98.1,26.461 v 0 c 0,0 -0.76,0 -1.56,-0.769 1.56,0 1.56,0.769 1.56,0.769 z m 397.02,-530.988 v 0 c 0,6.219 -13.17,-4.699 -29.51,-21.012 -8.56,-9.347 -17.92,-20.238 -26.53,-30.379 -6.25,-6.98 -11.69,-13.968 -15.54,-19.46 -1.56,-2.379 -3.88,-4.668 -4.68,-7.02 0.8,2.352 2.37,6.262 4.68,10.922 5.46,10.129 14.07,24.129 15.54,27.297 h 0.84 l 13.97,25.652 c 0,0 5.49,2.328 11.72,4.68 8.57,3.09 17.94,6.961 19.41,7.777 1.6,2.301 6.29,9.301 10.1,13.231 1.59,-2.36 0,-14.047 0,-11.688 z M 2767.11,195.32 v 0 l 1.6,-4.742 c 0,0 -15.53,-6.949 -24.89,-10.84 -3.93,-2.34 -7.05,-3.117 -7.05,-3.117 h -17.92 l 16.39,2.348 8.58,3.84 z m 58.43,292.719 v 0 c -3.12,2.359 -7.76,3.852 -14.8,2.359 h -0.77 c -1.54,-1.539 -7.04,-5.488 -7.04,-10.929 -1.5,-1.528 -6.19,0.82 -6.19,1.59 0,2.293 0.76,6.191 1.54,9.339 -2.27,-1.539 -4.63,-3.148 -4.63,-7.839 -8.6,-3.09 -7.81,17.152 -5.46,17.921 3.09,1.61 14.74,3.961 21.78,4.692 h 3.13 c 3.08,0 8.56,-3.082 12.44,-7.781 3.85,-3.911 7.02,-9.352 7.81,-13.282 0.76,-3.82 -2.35,-12.449 -7,-16.328 3.87,4.68 5.45,14.778 -0.81,20.258 z m -359.74,-6.98 v 0 c 0,-0.77 -5.4,-3.118 -6.93,-1.59 0,5.441 -5.47,9.39 -7.08,10.929 h -0.72 c -7.01,1.493 -11.72,0 -14.82,-2.359 -6.23,-5.48 -4.67,-15.578 -0.78,-20.258 -4.62,3.879 -7.78,12.508 -7.01,16.328 0.8,3.93 3.88,9.371 7.79,13.282 3.9,4.699 9.34,7.781 12.46,7.781 h 3.08 c 7.08,-0.731 18.72,-3.082 22.62,-4.692 1.56,-1.519 2.36,-21.011 -6.26,-17.921 0,4.691 -2.35,6.3 -4.64,7.839 0.72,-3.148 2.29,-7.046 2.29,-9.339 z m 52.23,-298.25 v 0 l 8.51,-3.84 16.38,-2.348 H 2525 c 0,0 -2.33,0.777 -6.97,3.117 -9.32,3.891 -24.93,10.84 -24.93,10.84 l 1.51,4.742 z m 267.81,-46.688 v 0 c -3.16,-5.461 -13.24,-14.012 -22.57,-19.473 -4.69,-2.339 -8.6,-3.878 -11.69,-3.878 -23.34,0 -38.1,0.769 -47.47,8.539 -0.79,0.8 -10.92,10.921 -12.49,18.691 1.57,-24.852 17.93,-35.02 35.79,-37.328 -10.9,-1.59 -23.3,1.519 -27.21,7.019 -7.01,10.059 -13.27,24.879 -13.27,42.821 -2.26,-6.25 -3.86,-21.852 3.97,-32.762 h -6.23 c 2.26,-5.441 21.78,-35.0312 -3.97,-0.75 h -2.32 c -3.05,0 -14.77,1.539 -17.9,0.75 7.76,-1.52 6.24,-20.2187 10.93,-24.1289 h -6.24 c -3.13,11.7379 -6.26,25.6879 -9.34,37.3789 0.73,3.121 2.33,7 3.08,10.922 -3.87,3.887 -7.76,7.769 -11.64,12.437 0,-1.57 -13.29,-2.32 -15.55,-3.14 -0.81,0 -0.81,-0.707 -0.81,-0.707 h 0.81 c 2.26,-2.332 12.44,-8.59 12.44,-8.59 2.31,-17.172 11.67,-31.152 14.75,-48.3009 -0.82,0 -2.03,-0.2813 -3.23,-0.5703 l -4.53,5.3012 -10.92,42 -8.51,6.23 -1.56,-0.773 -7.82,-4.68 -10.13,-38.149 -6,-9.9487 c -1.2,0.3085 -2.4,0.5898 -3.32,0.5898 3.84,17.1489 12.39,31.1289 14.81,48.3009 0,0 13.21,7.769 13.21,8.59 0,1.527 -16.38,2.277 -16.38,3.847 -3.88,-4.668 -7.8,-8.55 -11.64,-12.437 1.5,-3.922 2.29,-7.801 3.09,-10.922 -3.09,-11.691 -6.2,-25.641 -9.34,-37.3789 h -6.25 c 4.79,3.9102 3.13,22.6089 10.94,24.1289 -3.13,0.789 -14.82,-0.75 -17.89,-0.75 h -2.4 c -25.67,-34.2812 -6.22,-4.691 -3.85,0.75 h -6.24 c 8.56,10.91 6.24,26.512 3.87,32.762 0,-17.942 -6.28,-32.762 -13.24,-42.821 -3.88,-5.5 -16.26,-8.609 -27.2,-7.019 17.83,2.308 34.16,12.476 35.81,37.328 -1.65,-7.77 -10.88,-17.891 -12.49,-18.691 -8.52,-7 -21.01,-8.539 -40.47,-8.539 h -3.13 -3.92 c -3.08,0 -6.96,1.539 -11.64,3.878 -9.34,5.461 -19.5,14.012 -22.57,19.473 -3.08,7.008 -10.17,22.617 -10.86,32.699 0,1.532 7.78,-16.308 7.78,-14.781 0,1.551 -7.09,22.582 -7.09,24.18 0.84,5.41 3.93,10.82 7.81,13.929 0.8,-8.519 1.56,-7.75 4.68,-12.41 -4.68,7.774 0,23.352 7,25.692 -13.92,13.968 -24.89,29.539 -33.5,45.968 -6.2,13.211 -11.64,26.422 -15.54,40.481 -7.79,26.461 -11.64,52.941 -15.57,73.922 -1.55,7.808 -3.16,14.769 -4.71,21 0.84,0 2.41,0.82 3.16,1.64 0.76,-2.441 0.76,-3.961 1.55,-6.281 4.69,-18.719 9.34,-41.281 15.57,-63.82 4.73,-17.121 9.34,-33.508 15.54,-49.82 10.16,-26.45 24.18,-49.891 42.82,-62.321 0,0 1.58,0 3.93,-0.769 3.13,-0.77 5.43,-1.559 6.25,-1.559 -0.88,-0.449 -2.13,-0.871 -3.17,-1.152 -4.69,-0.328 -9.45,-5.36 -10.09,-6.578 -0.8,-3.192 -2.33,-7.102 -2.33,-10.993 v -5.41 c 0.78,-16.398 10.9,-35.816 28.83,-46.738 4.64,-2.34 9.33,-3.891 13.97,-5.43 7.85,-2.32 7.85,-0.82 12.49,-2.32 4.69,-0.77 -11.66,-2.371 -26.46,3.859 -2.44,0.782 -4.67,2.352 -7.85,3.891 1.58,-1.539 4.77,-3.109 7.85,-5.43 11.69,-6.261 31.89,-10.922 36.59,1.539 0.75,0.782 3.88,10.071 1.51,12.469 -4.55,3.883 -14,1.551 -19.44,2.344 -9.33,0.719 -9.33,14.816 0,19.418 9.35,3.89 34.26,-3.84 31.18,-23.34 1.52,3.129 2.32,6.262 3.08,10.18 v 3.859 c -1.56,14.781 -15.58,27.191 -41.23,28.012 -3.96,2.347 -7.84,3.871 -11.69,5.461 -10.17,5.437 -17.17,10.148 -20.25,12.457 1.23,1.293 2.08,1.812 3.16,2.062 4.41,-0.902 8.81,-3.082 13.16,-5.89 0.85,0 1.49,-0.821 3.13,-1.621 3.92,-1.571 8.53,-3.942 13.22,-6.211 33.48,-2.387 69.33,-29.571 54.51,-64.649 24.17,43.57 -23.38,74 -62.29,78.66 -1.52,0.77 -3.88,0.77 -5.44,1.551 -1.64,0 -2.28,0 -3.13,0.789 -5.39,1.539 -10.88,3.891 -15.56,6.981 -21.77,13.988 -35.86,42.031 -46.75,73.191 -6.2,18.688 -10.81,38.129 -15.54,56.047 -4.67,18.691 -8.56,35.82 -12.44,49.043 -0.76,3.898 -2.32,7.066 -3.13,10.18 -0.79,3.07 -2.3,4.589 -3.16,6.976 -8.48,9.352 -17.09,23.313 -22.52,38.891 -6.21,19.461 -7.78,39.781 0,52.992 2.3,3.129 4.68,5.48 7,7.769 -3.12,-6.25 -11.7,-31.949 -1.57,-52.96 -1.55,20.242 0.77,42.871 10.9,45.941 -5.42,-4.672 3.11,-14.801 9.35,-20.973 3.13,-3.957 6.26,-6.277 5.41,-7.078 -1.48,11.692 -0.72,21.09 -0.72,22.59 0,3.141 4.65,7.84 10.88,12.48 4.73,3.149 9.34,5.489 13.26,7.008 -3.13,1.602 -5.45,1.602 -5.45,3.121 2.32,-0.777 5.45,-1.519 7.73,-1.519 7.08,-0.781 12.44,0 16.36,4.601 5.46,0 14.02,-0.769 17.14,-2.312 -0.71,-7.75 -24.14,-9.348 -31.89,-4.688 -0.77,0 -0.77,-0.722 -1.61,-0.722 -6.2,-0.821 -11.64,-3.938 -15.54,-8.598 -6.99,-7.801 -10.16,-18.711 -10.16,-23.332 0,-1.551 3.93,-10.937 10.16,-16.398 1.57,-1.5 3.1,-3.11 5.41,-4.641 0.81,0.801 5.47,-3.109 10.13,1.531 1.61,1.61 3.16,3.11 4.72,6.231 -5.44,14.777 22.53,0 22.53,-2.321 0,-1.57 -0.75,-38.16 0.85,-39.691 -7,-7.852 -16.38,-15.621 -28.1,-20.309 -4.66,-1.519 -10.13,-3.07 -15.54,-4.589 5.41,0.796 10.13,1.519 15.54,3.07 10.16,3.156 20.24,7.027 29.66,12.488 0,-0.801 0.72,-1.621 0.72,-3.121 -7.76,-8.617 -17.94,-16.391 -30.38,-21.059 -3.84,-1.558 -7.73,-2.32 -11.64,-3.039 3.91,0 7.8,0.719 11.64,2.297 10.89,2.313 21.1,6.953 31.93,12.434 v -3.863 h -0.71 c -7.84,-7.829 -18.78,-14.028 -31.22,-17.149 -3.84,-1.59 -8.56,-1.59 -13.22,-2.32 4.66,0 8.56,0 13.22,0.73 11.72,1.59 22.62,4.711 33.5,10.168 0,-0.816 0.8,-0.816 0.8,-1.578 h -1.51 c -7.81,-9.32 -18.78,-16.301 -32.79,-20.238 -2.28,-0.774 -5.41,-1.563 -8.56,-1.563 3.15,0 5.48,0 8.56,0.789 12.44,1.543 24.18,5.461 35.86,12.422 0,-0.73 0.77,-1.519 0.77,-2.3 h -0.77 c -9.36,-10.911 -20.3,-17.918 -35.86,-21.008 13.32,0.769 25.74,4.609 38.94,12.429 v -0.769 c -9.28,-12.41 -19.36,-20.262 -35.78,-24.871 14.01,2.269 25.69,6.179 38.15,15.519 0,-0.82 0,-0.82 0.79,-1.539 -8.6,-12.511 -17.92,-19.461 -34.26,-24.203 13.26,2.391 25.66,6.281 36.56,15.582 0,-0.75 0.83,-0.75 0.83,-1.5 -7.82,-11.691 -15.57,-17.129 -30.38,-22.648 11.65,2.386 22.56,5.519 31.9,13.308 0.8,0 0.8,0.77 1.56,0.77 0,-0.77 0,-1.551 0.76,-2.34 -0.76,-0.781 -1.52,-1.578 -2.32,-2.352 -6.21,-9.386 -13.25,-13.957 -25.65,-18.687 9.28,1.519 17.84,3.961 25.65,9.301 1.56,0.867 2.32,2.386 3.88,3.16 -1.56,-2.293 -2.32,-3.891 -3.88,-6.211 -6.21,-8.57 -13.25,-14.031 -26.51,-18.691 10.14,1.57 18.7,3.89 26.51,9.339 3.13,2.332 6.25,4.621 9.32,7.832 1.56,-4.73 3.9,-8.601 6.24,-12.511 0.85,-1.551 1.49,-3.09 3.13,-5.43 5.44,-7.809 10.13,-14.809 13.22,-17.918 14.87,-15.562 30.4,-34.254 53.75,-34.254 8.55,0 27.22,15.563 46.71,15.563 h 0.81 c 18.67,0 38.16,-15.563 45.89,-15.563 23.38,0 38.9,19.442 53.76,34.254 4.65,4.656 16.29,20.258 22.57,35.859 3.09,-3.211 6.17,-5.5 9.33,-7.832 7.77,-5.449 16.33,-7.769 26.51,-9.339 -13.3,4.66 -20.27,10.121 -26.51,18.691 -1.52,2.32 -2.36,3.918 -3.89,6.211 1.53,-0.774 2.37,-2.293 3.89,-3.16 7.77,-5.34 16.33,-7.782 25.7,-9.301 -12.49,4.73 -19.46,9.301 -25.7,18.687 -0.81,0.774 -1.52,1.571 -2.36,2.352 0.84,0.789 0.84,1.57 0.84,2.34 0.71,0 0.71,-0.77 1.52,-0.77 10.09,-7.789 20.26,-10.922 31.94,-13.308 -14.81,5.519 -22.61,10.957 -30.38,22.648 0.77,0.75 0.77,0.75 0.77,1.5 10.88,-9.301 23.37,-13.191 36.62,-15.582 -16.38,4.742 -25.74,11.692 -34.26,24.203 0.75,0.719 0.75,0.719 0.75,1.539 12.49,-9.34 24.09,-13.25 38.16,-15.519 -16.34,4.609 -26.47,12.461 -35.11,24.871 h -0.72 v 0.769 c 13.28,-7.82 25.7,-11.66 38.93,-12.429 -15.59,3.09 -26.44,10.097 -35.78,21.008 h -0.83 c 0,0.781 0.83,1.57 0.83,2.3 11.65,-6.961 23.31,-10.879 35.78,-12.422 3.13,-0.789 5.45,-0.789 8.57,-0.789 -3.12,0 -6.24,0.789 -8.57,1.563 -13.96,3.937 -24.13,10.918 -32.66,20.238 h -1.6 c 0,0.762 0.77,0.762 0.77,1.578 10.92,-5.457 22.57,-8.578 33.49,-10.168 4.69,-0.73 8.57,-0.73 13.26,-0.73 -4.69,0.73 -9.37,0.73 -13.26,2.32 -12.47,3.121 -23.38,9.32 -31.13,17.149 h -0.76 v 3.863 c 10.89,-5.481 20.97,-10.121 31.89,-12.434 3.89,-1.578 7.81,-2.297 11.69,-2.297 -3.88,0.719 -7.8,1.481 -11.69,3.039 -12.47,4.668 -22.57,12.442 -30.37,21.059 0,1.5 0.8,2.32 0.8,3.121 9.38,-5.461 19.46,-9.332 29.57,-12.488 5.45,-1.551 10.1,-2.274 15.57,-3.07 -5.47,1.519 -10.88,3.07 -15.57,4.589 -11.69,4.688 -21,12.457 -28.01,20.309 1.57,1.531 0.72,38.121 0.72,39.691 0,2.321 28.06,17.098 22.6,2.321 1.59,-3.121 3.15,-4.621 4.69,-6.231 5.45,-4.64 9.34,-0.73 10.1,-1.531 2.35,1.531 3.91,3.141 5.47,4.641 6.26,5.461 10.17,14.847 10.17,16.398 0,4.621 -3.15,15.531 -10.17,23.332 -3.88,4.66 -9.36,7.777 -15.57,8.598 -0.75,0 -0.75,0.722 -0.75,0.722 -8.64,-4.66 -31.91,-3.062 -32.74,4.688 3.12,1.543 11.71,2.312 17.17,2.312 3.85,-4.601 9.28,-5.382 16.32,-4.601 2.33,0 5.45,0.742 7.81,1.519 0,-1.519 -2.36,-1.519 -4.68,-3.121 3.08,-1.519 7.76,-3.859 12.44,-7.008 6.26,-4.64 10.93,-9.339 10.93,-12.48 0,-1.5 0.81,-10.898 -0.76,-22.59 -0.88,0 0,-0.719 5.37,2.352 0.84,0 0.84,0.769 1.61,0.769 7,5.508 5.47,-45.121 1.55,-45.121 7.77,1.551 16.33,54.449 7.01,56.86 10.13,-3.168 10.88,-40.551 -6.21,-71.661 31.14,35.821 21.78,68.493 18.66,74.719 1.55,-1.539 3.12,-3.058 3.91,-3.828 10.9,-11.738 8.57,-28.84 0,-45.961 -5.48,-11.668 -14.8,-23.359 -23.37,-32.711 -0.75,-2.387 -2.32,-3.906 -3.16,-6.976 -0.73,-3.114 -2.28,-6.282 -3.04,-10.18 -3.93,-13.223 -7.82,-30.352 -12.5,-49.043 -4.68,-17.918 -9.36,-37.359 -15.57,-56.047 -10.92,-31.16 -24.92,-59.203 -46.7,-73.191 -7,-4.7 -15.61,-7.77 -24.14,-9.321 -38.93,-4.66 -86.42,-35.09 -62.27,-78.66 -14.82,35.078 21.01,62.262 54.51,64.649 12.12,4.55 20.6,11.269 29.73,13.722 1,-0.301 1.76,-0.851 2.92,-2.062 -3.11,-2.309 -10.08,-7.02 -20.2,-12.457 -3.93,-1.59 -7.8,-3.114 -11.74,-5.461 -25.63,-0.821 -39.66,-13.231 -41.18,-28.012 v -3.859 c 0.72,-3.16 1.52,-7.051 3.08,-10.18 -3.08,19.5 22.53,27.23 31.15,23.34 9.36,-4.602 9.36,-18.699 0,-19.418 -5.49,-0.793 -14.82,1.539 -19.47,-2.344 -2.34,-2.398 0.79,-11.687 1.57,-12.469 4.68,-12.461 24.85,-7.8 36.59,-1.539 3.07,2.321 6.21,3.891 7.76,5.43 -2.31,-1.539 -5.45,-3.109 -7.76,-3.891 -14.05,-6.23 -31.18,-4.629 -26.5,-3.859 4.67,1.5 4.67,0 12.45,2.32 4.72,1.539 9.36,3.09 14.05,5.43 17.93,10.922 27.94,30.34 28.78,46.738 v 5.41 c 0,3.891 -0.84,7.801 -2.33,10.993 -0.59,1.218 -4.88,6.25 -9.8,6.578 -0.88,0.332 -2.08,0.703 -3.44,1.152 0.76,0 3.88,0.789 6.24,1.559 2.33,0.769 3.84,0.769 3.84,0.769 18.73,12.43 32.75,35.871 42.86,62.321 6.21,16.312 10.89,32.699 15.57,49.82 6.26,22.539 10.93,45.101 15.54,63.82 0.84,2.32 1.61,3.84 1.61,6.281 0.8,-0.82 2.35,-1.64 3.11,-1.64 -1.56,-6.231 -3.11,-13.192 -4.72,-21 -3.8,-20.981 -7.73,-47.461 -15.54,-74.742 -3.88,-13.239 -8.6,-26.45 -15.57,-39.661 -8.54,-16.429 -19.44,-32 -33.49,-45.968 7.05,-2.34 11.71,-17.918 7.05,-25.692 3.06,4.66 3.87,3.891 4.66,12.41 3.94,-3.109 7.02,-8.519 7.82,-13.929 0,-1.598 -7.04,-22.629 -7.04,-24.18 0,-1.527 7.77,16.313 7.77,14.781 -0.73,-10.082 -7.77,-25.691 -10.9,-32.699 z m -155.68,-22.582 v 0 h 0.75 c 16.36,0 7,-14.789 -0.75,-14.789 -3.13,-0.75 -6.22,2.332 -7.02,10.121 -0.8,3.149 5.41,3.899 7.02,4.668 z m 0,28.039 v 0 c 9.31,-2.398 5.39,-10.117 0,-8.578 -1.61,0 -3.13,1.57 -4.67,4.738 -1.55,2.262 3.06,4.614 4.67,3.84 z m -3.94,-15.527 v 0 c 0,0.699 2.33,2.258 3.94,2.258 h 3.1 c 6.97,-4.649 2.29,-10.079 -3.1,-11.661 -3.13,-0.726 -7.02,0.793 -3.94,9.403 z m 41.26,-44.4416 v 0 c 13.22,-10.918 21.82,-16.3477 40.47,-16.3477 -20.22,-6.2304 -36.54,8.6172 -45.91,12.4571 4.68,-7.0274 14.05,-26.4493 14.05,-28.7891 0,-6.25 -14.85,-8.5313 -19.53,0.75 -8.48,-6.2305 0,-12.4414 5.48,-10.8984 2.34,-2.293 -3.13,-7.8204 -6.21,-7.8204 0,-5.3906 -6.23,-15.5117 -11.67,-13.9804 -0.82,-3.8399 -7.02,-4.6211 -12.44,-4.6211 -5.5,0.7812 -10.15,2.2695 -10.94,5.4414 -6.25,-2.3516 -9.36,4.6484 -9.36,11.6875 -2.29,0 -12.46,3.0625 -12.46,7.75 0,0.8008 9.38,5.4414 8.6,13.2109 -0.83,-7.7695 -17.91,-8.5 -19.52,-1.5195 -0.74,2.3398 -1.53,15.5586 4,22.5586 -8.6,0.8203 -17.94,-12.457 -38.27,-6.2266 18.73,0 27.27,5.4297 40.51,16.3477 -31.91,-5.461 -52.15,-9.3008 -66.15,13.1914 0,0 2.32,6.2812 8.56,2.3789 -2.31,-3.1094 11.67,-17.1211 25.68,-17.1211 16.42,0 30.71,9.8398 46.97,13.4023 5.8,0.3282 16.35,0.8672 20.82,1.3399 h 2.27 l 18.86,-0.5703 c -0.28,-0.0508 -0.66,-0.1602 -0.9,-0.1602 17.09,-3.1211 31.87,-14.0117 49.03,-14.0117 14.06,0 27.99,14.0117 25.71,17.1211 6.24,3.9023 8.55,-2.3789 8.55,-2.3789 -14.04,-22.4922 -34.26,-18.6524 -66.2,-13.1914 z M 2451.79,221.789 v 0 c -5.41,10.121 -10.81,24.121 -15.54,39.66 -5.4,17.153 -10.88,35.84 -15.57,53.742 -7,24.918 -14.04,49.071 -20.25,65.379 0,0 0.77,0 1.57,0.86 7.77,-14.782 13.28,-32.77 18.68,-50.649 5.41,-18.691 9.34,-38.902 15.57,-57.59 3.9,-14.07 9.34,-27.281 15.54,-38.941 5.53,-9.34 11.72,-18.738 19.58,-25.699 l -4.73,-5.461 c -5.49,3.109 -10.13,9.351 -14.85,18.699 z M 2395,389.16 v 0 c -5.48,7.828 -13.25,21.039 -14.84,21.84 5.42,0.699 13.27,-2.391 13.27,-3.16 0,-1.512 0.79,-3.149 1.57,-6.219 3.12,-8.57 8.56,-20.191 4.68,-18.672 -0.8,0 -2.38,3.051 -4.68,6.211 z M 2881.62,411 v 0 c -1.56,-0.801 -8.55,-11.691 -14.01,-19.52 -2.36,-4.679 -4.71,-7.761 -5.48,-8.531 -3.88,-1.519 3.12,14.039 5.48,22.59 0.77,0.789 0.77,1.539 0.77,2.301 0,0.769 7.8,3.859 13.24,3.16 z m -40.54,-95.809 v 0 c -4.61,-17.902 -10.08,-36.589 -15.54,-53.742 -4.68,-15.539 -10.12,-29.539 -15.57,-39.66 -4.69,-9.348 -9.39,-15.59 -14.76,-18.699 l -4.68,5.461 c 7.75,6.961 14.01,16.359 19.44,25.699 6.21,11.66 11.69,24.871 15.57,38.941 6.26,18.688 10.17,38.098 15.54,57.59 5.48,17.879 10.93,35.867 18.72,50.649 0.77,-0.86 1.58,-0.86 1.58,-0.86 -6.25,-16.308 -13.22,-40.461 -20.3,-65.379 z M 2436.25,147.02 v 0 c -3.91,5.492 -9.31,12.48 -15.57,19.46 -7.79,10.141 -17.12,19.442 -25.68,28.84 -16.34,17.121 -30.39,29.59 -30.39,22.551 0,-2.359 -1.51,9.328 0,11.688 3.9,-3.93 8.6,-10.93 10.13,-13.231 1.56,-0.816 11.69,-5.488 20.26,-8.547 6.2,-2.351 10.91,-3.91 10.91,-3.91 l 14.77,-25.652 c 1.58,-3.168 10.17,-17.168 15.57,-27.297 2.32,-4.66 3.9,-8.57 4.73,-10.922 -0.83,2.352 -3.16,4.641 -4.73,7.02 z m -61.51,425.89 v 0 c 0.79,0.781 1.56,1.551 1.56,2.352 3.12,3.879 9.28,3.879 13.22,5.429 2.31,0.75 3.91,2.34 5.48,3.09 11.64,7.047 19.44,17.938 25.68,29.629 6.26,14.02 10.9,28.02 14.79,41.281 0.78,0 0.78,0.719 0.78,1.539 3.9,13.25 9.34,27.231 15.54,40.461 7.84,15.539 18.72,28.821 33.5,37.418 4.69,1.52 9.32,2.27 13.25,2.27 5.43,0 10.17,-1.488 15.56,-4.66 0.85,0 1.49,-0.77 3.13,-1.547 0.8,0 2.32,-0.742 3.13,-1.543 2.31,-2.34 3.08,-10.129 0,-12.438 -0.81,0.789 -2.33,1.539 -3.13,2.309 -0.79,0 -2.28,0.762 -3.13,1.559 -4.68,1.582 -10.13,2.339 -15.56,2.339 -2.35,-0.757 -5.44,-0.757 -7.81,-1.578 -20.22,-7 -31.1,-28.011 -38.94,-47.461 -1.53,-3.109 -2.28,-6.257 -3.84,-9.371 -3.89,-11.687 -6.97,-24.117 -11.7,-34.968 -3.91,-10.989 -9.31,-21.86 -15.57,-31.2 -2.3,-3.922 -5.4,-7.761 -8.56,-11.672 -4.68,-3.886 -10.12,-9.32 -17.12,-11.687 -6.21,-3.09 -13.25,-4.66 -20.26,-1.551 z m 142.49,161.199 v 0 c 8.53,-0.281 14.29,-1.519 18.08,-3.238 -5.14,0.66 -10.88,1.41 -18.08,2.41 -0.79,0.828 -2.28,0.828 -3.13,0.828 z m -18.69,-14.847 v 0 c -3.93,0 -7.01,-1.532 -13.25,-3.071 -1.57,-0.781 -3.12,-1.64 -3.84,-2.371 0,0.731 1.56,1.59 1.56,1.59 5.41,3.09 10.88,4.649 15.53,4.649 5.43,0.761 10.88,0 15.56,-2.329 -7.8,1.532 -11.68,2.329 -15.56,1.532 z m 90.33,219.621 v 0 c 0,0 -6.24,0.75 -5.43,0.75 -0.81,0 10.08,7 10.08,7 1.66,6.23 4.68,10.937 5.44,17.168 2.37,0.754 1.61,3.008 3.93,3.91 1.5,0 3.84,-0.902 6.24,-1.594 2.29,0 4.69,0 7.76,-0.84 v 4.696 c -2.36,0.793 -3.92,2.394 -6.24,3.136 3.88,0.782 7.05,0.782 10.92,1.551 -0.79,-3.125 -1.55,-6.238 -2.31,-9.383 0,-0.722 -0.84,-2.304 -1.56,-3.847 3.08,2.371 5.44,5.379 7.79,7.773 v 5.457 c -0.87,2.324 -1.55,5.449 -1.55,7.793 -1.6,0.735 -3.16,1.508 -4.68,3.098 -7.05,-3.836 -13.28,-7.785 -20.3,-11.66 3.12,2.343 6.22,4.648 8.6,7 0,0.824 12.46,12.433 12.46,13.234 -3.89,-3.117 -20.24,-16.359 -24.18,-19.465 2.36,5.449 9.34,7.793 10.89,13.235 -3.08,-3.067 3.92,7.793 0.83,8.566 -3.17,0.777 -26.52,-30.344 -22.6,-31.906 3.08,-1.582 -2.33,-10.879 -2.33,-10.879 l -2.32,-10.168 c 0,0 -2.36,0.773 -3.91,2.344 1.55,3.117 5.48,22.57 5.48,21.859 4.63,7.769 9.32,15.477 14.76,22.516 7.01,6.234 14.01,12.463 21.06,17.923 4.64,0 9.33,-0.77 14.02,-0.77 3.1,0 5.42,-0.75 8.51,-0.75 11.65,-3.94 24.15,-8.571 35.86,-12.505 3.12,-7.051 6.17,-14.785 9.33,-21.758 0.76,-3.164 0.76,-6.25 0.76,-8.566 0,0 -0.76,0 -0.76,-0.828 0,-0.774 -0.75,-9.297 -1.56,-14.004 -2.32,-0.781 -4.65,-2.336 -7.77,-3.117 -1.64,3.117 -2.36,7.011 -2.36,7.011 0,0 -2.32,10.938 -2.32,11.692 0,-0.754 -18.7,4.648 -18.7,5.418 0,-0.77 -17.16,2.394 -17.16,2.394 -1.57,3.113 -3.12,6.172 -3.83,9.348 -0.81,1.473 -1.56,3.113 -2.38,4.625 0,-4.625 0,-9.356 -0.79,-13.973 0.79,-0.832 1.61,-1.601 3.17,-2.394 1.54,-1.551 3.1,-3.856 3.83,-3.856 1.59,-1.562 13.24,-4.687 13.24,-4.687 0,0 15.59,-1.575 15.59,-0.793 0,-0.782 7.03,-15.528 7.03,-15.528 0,0 0.76,-1.601 3.04,-3.164 0,-3.836 0.88,-5.449 0.88,-9.343 -0.88,-11.68 -2.4,-22.579 -12.52,-31.114 0,0 -0.77,-6.203 -10.1,-10.117 -3.92,0.789 -8.55,-9.387 -20.99,-8.566 h -3.17 c -3.93,0.754 -17.9,8.566 -6.21,10.129 0.8,0.789 2.28,-1.563 4.69,-1.563 h 4.69 6.94 c 0,0 3.94,-2.375 3.94,0 0,1.563 -1.53,1.563 -1.53,2.352 0,0.734 2.27,2.297 2.27,3.047 0,0 -2.27,-2.313 -5.43,-2.313 -2.36,0 -4.65,-0.734 -6.19,0 -3.95,0 -7.1,0.828 -7.78,3.094 2.28,2.344 4.61,3.137 7.78,3.137 3.83,0 8.51,-0.793 12.44,-1.575 2.31,-0.777 2.31,3.899 -0.82,1.575 -2.27,0.8 -6.99,2.324 -11.62,3.164 -5.5,0.769 -10.15,0.769 -13.3,-2.364 -1.53,0 -0.72,-3.152 -0.72,-3.152 l -7.84,-3.879 c -10.08,2.313 -12.46,4.656 -13.22,19.481 -0.8,4.66 -5.44,9.375 -5.44,9.375 l 3.98,15.57 z m 187.61,-222.692 v 0 c -6.21,1.539 -9.37,3.071 -13.21,3.071 -3.89,0.797 -8.6,0 -17.94,-2.282 5.44,2.282 10.94,3.84 17.94,3.079 4.69,0 10.09,-1.559 15.57,-4.649 0,0 1.56,-0.859 1.56,-1.59 -0.8,0.731 -2.32,1.59 -3.92,2.371 z m -38.9,-17.921 v 0 c 0,0 0,-3.149 -5.5,-1.579 -8.53,15.539 -37.33,29.598 -36.57,22.571 0,0 -5.44,10.168 -4.61,20.258 3.08,5.46 8.52,11.679 13.94,18.66 4.71,1.64 10.21,2.371 17.96,3.16 16.33,-2.309 -31.18,-9.36 40.47,-15.578 2.33,-0.782 5.44,-0.782 8.49,-0.782 -3.05,0 -6.16,0 -8.49,-0.781 -44.42,-3.91 -29.59,-40.48 -25.69,-45.929 z m 249.1,-372.141 v 0 c 0.81,0 0.81,0.793 0.81,0.793 -25.65,28.769 -94.18,-86.442 -91.1,-91.133 -5.43,-11.699 -14,-20.277 -28.78,-24.148 -1.56,-0.801 -4.71,-0.801 -7.04,-1.539 -6.16,-0.821 -12.41,-10.954 -19.49,-24.18 -4.61,-8.524 -9.28,-18.692 -15.54,-28.813 -4.68,-7.75 -9.36,-15.531 -15.57,-22.539 -2.35,-2.34 -3.92,-4.679 -6.23,-7 3.13,5.43 0.8,42.782 0.8,42.782 0,0 -4.68,8.617 -6.26,16.386 0,0 -1.54,3.121 -2.27,4.571 3.85,-2.27 6.21,-2.27 10.86,4.832 0.75,0 2.35,0.718 3.1,0.718 5.45,2.289 10.89,9.34 15.57,18.653 5.46,10.117 10.93,24.148 15.54,38.929 10.17,29.637 18.72,64.7 26.53,91.879 3.89,10.942 6.98,20.328 10.05,28.008 3.96,9.391 8.57,17.152 10.96,17.152 0.81,0 16.33,8.622 16.33,8.622 8.58,35.769 14.85,156.468 -32.66,165.058 3.89,0.75 8.5,3.051 13.26,5.461 0.68,0.75 2.32,1.469 3.07,1.469 -2.39,5.512 -2.39,4.738 -6.23,7.808 -5.46,0.793 -10.1,2.364 -14.78,3.883 -2.11,1.168 -3.91,2.93 -5.96,4.34 2.05,-1.641 3.72,-3.73 5.96,-5.09 1.49,-0.769 3.13,-1.59 4.68,-2.34 3.89,-1.55 10.85,-1.55 13.26,-5.429 0,-0.801 0.68,-1.571 1.47,-2.352 -6.23,-2.289 -13.15,-1.539 -19.41,0.781 -7.04,3.137 -13.2,7.75 -17.92,12.457 -3.13,3.911 -6.2,7.75 -8.61,11.672 -6.25,9.34 -11.69,20.211 -15.54,31.2 -4.68,10.851 -7.76,23.281 -11.68,34.968 -1.56,3.114 -2.29,6.262 -3.89,9.371 -7.75,19.45 -18.69,40.461 -38.93,47.461 -2.33,0.821 -5.44,0.821 -7.77,1.578 -7.76,0 -15.61,-1.578 -21.81,-6.207 -3.09,2.309 -2.33,10.098 0,12.438 7.81,4.652 14.81,7.75 21.81,7.75 3.84,0 8.49,-0.75 13.21,-2.27 7.92,-4.371 14.45,-10 19.93,-16.429 -0.4,0.941 -0.79,2.211 -1.2,3.14 -0.83,1.578 -14.81,24.16 -21.02,24.942 -3.15,0.758 -7.08,0.758 -10.92,1.527 -21.81,2.391 -46.76,4.691 -30.33,14.051 0.43,-7.211 6.76,-9.512 14.6,-10.719 -18.54,27.719 -23.26,7.59 -31.74,14.598 -0.75,0.769 13.97,8.519 13.97,8.519 l -25.66,36.653 c 0,0 2.34,2.328 6.2,5.449 -6.2,-2.328 -14,4.68 -14,4.68 -1.56,1.539 -8.58,28.027 -9.38,29.55 -0.75,1.645 -3.07,-9.355 -3.86,-7.691 -0.81,1.48 -3.13,4.617 -5.46,6.941 0.77,-4.718 0.77,-9.336 1.6,-13.242 -0.83,-0.82 -0.83,-1.531 -1.6,-2.324 -3.88,-2.344 -8.57,-7.024 -12.44,-9.375 -0.79,0 -13.29,2.351 -20.22,2.351 -3.13,0 -7.04,13.985 -7.04,13.254 0,-7.793 -3.93,-14.004 1.56,-17.925 7,0 24.14,-2.368 28.77,-6.219 5.49,0 8.62,2.332 14.02,6.969 2.41,-3.118 0,-14.778 0,-14.778 l -14.78,-1.531 c 0,0 14.78,0.789 13.22,-5.461 13.28,0.789 24.14,-24.129 20.29,-34.309 -2.36,-6.179 -11.69,-21.75 -14.81,-26.441 -0.76,-1.59 12.45,-14.777 -13.25,-31.918 -1.52,2.399 -1.52,4.707 -1.52,4.707 l -7.03,4.652 h 9.35 c 0,0 6.97,9.372 6.97,10.149 0,-0.777 -9.29,-1.59 -9.29,-1.59 l -16.37,-0.777 -8.57,13.187 4.68,-12.41 v -7.027 l 7.01,-7.762 -2.33,-24.949 h 6.98 c -0.77,-3.09 -0.77,-6.199 -0.77,-7.781 0,0 5.44,-0.77 10.13,-0.77 2.28,0 2.28,-6.961 3.16,-7.75 l 20.98,38.121 c 1.56,0 32.69,-14.019 32.69,-14.019 5.49,-3.071 11.65,-1.543 13.25,4.707 0,0.8 -14.01,14.761 0,16.351 -0.79,0 -8.57,-3.18 2.29,-16.351 2.35,1.519 4.73,2.371 6.23,2.371 2.41,0 4.74,0.718 6.26,0.718 2.35,0 3.88,0 6.24,-0.718 19.41,-5.508 32.74,-37.442 46.7,-67.821 3.89,-8.531 7.81,-17.097 11.69,-25.699 1.57,-3.07 2.32,-6.191 3.88,-9.301 3.09,-6.23 6.26,-12.461 10.93,-17.918 1.57,-0.793 3.14,-2.371 4.61,-3.863 6.24,-5.457 13.33,-11.668 21.82,-12.488 -2.33,-1.539 -5.37,-2.34 -7.01,-3.891 4.68,0 8.65,-0.769 11.72,-2.34 47.45,-17.898 54.48,-115.211 25.7,-151.781 l -9.36,-0.789 v 6.16 c 4.67,1.571 11.68,11.731 11.68,12.5 0,12.09 1.53,24.75 2.91,37.531 -3.23,-26.96 -10.46,-51.039 -17.75,-49.191 -1.52,-0.84 -5.4,-0.84 -9.29,-0.84 30.29,21.86 24.89,111.41 -3.89,125.391 -5.48,3.121 -11.72,3.121 -18.72,-0.75 7,5.441 13.24,5.441 18.72,3.082 15.53,-6.981 25.7,-34.25 29.51,-44.383 -3.05,21.043 -15.5,37.402 -29.51,46.742 -9.36,7.028 -18.72,10.149 -26.53,9.328 -6.97,-0.769 -11.69,-4.668 -11.69,-13.25 0,0 2.41,-7.769 11.69,-8.539 -3.04,-3.89 -11.69,-5.461 -15.54,-3.89 -16.32,10.09 -8.6,21.781 0,28.789 1.22,0.859 2.29,1.531 3.37,2.133 -1.08,-0.454 -2.32,-0.653 -3.37,-1.364 -25.68,-12.41 -9.36,-26.468 0,-31.879 0.81,-0.789 1.6,-0.789 2.33,-0.789 -0.73,-0.75 -1.52,-0.75 -2.33,-0.75 -0.79,-0.781 -0.79,-0.781 -1.56,-0.781 h -1.56 -8.56 c -0.76,0 -2.29,0.781 -3.89,2.32 -3.92,2.321 -7.75,6.981 -7.75,7.75 0.71,-3.898 7,-9.289 7.75,-10.07 -27.29,3.84 -19.44,32.66 0,45.121 2.33,1.539 4.69,2.301 6.97,3.891 2.37,1.57 -1.52,1.57 -6.97,0.82 -6.23,-0.82 -13.96,-2.41 -18.69,-4.711 9.3,1.539 17.94,2.301 15.59,1.539 -9.37,-3.879 -20.28,-11.64 -21.82,-22.57 l -16.34,1.562 c -1.6,5.489 -3.11,11.668 -5.44,17.899 2.33,3.109 6.24,7.031 6.24,7.031 0.76,0.719 6.2,3.891 12.45,6.231 -11.69,-1.571 -15.6,-3.141 -18.69,-5.512 -0.81,0 -1.52,-0.719 -1.52,-1.469 -0.84,1.469 -1.64,3.07 -1.64,4.641 0.8,1.566 1.64,3.879 3.16,5.429 2.33,3.09 4.69,5.457 4.69,5.457 0.75,0 7,4.68 13.24,7 -10.93,-2.32 -14.84,-3.089 -17.93,-5.476 -2.36,-0.723 -3.89,-2.301 -6.24,-4.641 -0.76,3.117 -2.36,6.231 -3.85,8.598 3.85,3.891 6.93,7.762 10.09,10.891 5.44,5.39 10.92,9.332 17.93,12.441 -8.6,-0.82 -13.24,-3.883 -17.93,-7.801 -3.89,-2.32 -7,-6.16 -12.5,-10.16 -1.5,4 -3.11,7.07 -5.44,10.16 6.25,7.801 11.7,14.031 17.94,18.692 5.44,4.636 10.92,8.558 17.93,10.918 -8.6,-0.77 -13.24,-2.36 -17.93,-5.481 -7,-3.859 -11.69,-10.867 -21.02,-17.879 -1.6,2.281 -3.88,5.442 -3.88,6.262 0,0 -2.35,2.25 -3.13,3.84 10.09,11.687 17.94,19.468 28.03,26.449 3.09,2.34 7,4.73 10.92,6.269 -3.92,-0.82 -7.83,-1.539 -10.92,-2.332 -13.24,-4.687 -17.94,-14.027 -33.5,-24.128 -2.36,3.07 -4.64,5.429 -7.78,7 13.25,16.351 26.47,34.269 41.28,41.23 0.75,0.77 0.75,0.77 1.56,0.77 h -1.56 c -23.38,-2.34 -29.59,-18.692 -52.2,-32.7 l -5.41,3.891 c 13.19,17.141 27.28,35.82 42.8,42.848 -25.66,-2.348 -31.14,-20.25 -56.04,-35.02 -7,3.082 -13.21,6.199 -19.49,7.801 -28.77,-22.61 -35.02,-14.809 -30.33,6.969 1.56,7.031 3.87,18.722 3.87,18.722 l -3.87,17.91 -3.13,31.899 h 0.76 c -7.05,11.922 1.76,28.558 12.56,37.211 -7.84,-2.102 -15.12,-2.141 -21.07,-0.621 -5.5,1.55 -10.94,3.121 -14.83,5.441 -5.47,3.109 -9.33,-3.09 -17.11,-2.32 8.56,-4.68 19.48,-11.692 27.25,-15.582 1.52,-0.84 3.13,-3.879 4.69,-7.84 2.26,-7.699 3.83,-19.418 0.71,-19.418 -3.09,0 4.71,-10.859 3.12,-18.699 -2.29,-8.492 -3.83,-24.141 -0.73,-27.231 3.09,-2.34 0,-9.301 -3.1,-17.922 -0.81,-0.75 -0.81,-0.75 -0.81,-1.55 0,0 0,-0.739 0.81,-1.52 v -5.449 c 0.71,0 2.26,0.719 6.94,0.719 -7.75,-23.329 17.17,-24.879 35.07,-8.52 10.13,-3.098 19.46,-7.828 28.03,-14.07 11.72,-6.949 22.57,-17.867 30.32,-28.028 14.81,-24.062 24.95,-51.351 31.19,-80.171 7.77,-38.879 8.49,-79.379 3.84,-117.571 -0.75,-9.34 -2.28,-17.847 -3.84,-27.211 -6.24,-33.476 -15.61,-67.008 -32.71,-95.019 -15.51,-21.758 -31.93,-45.141 -55.23,-41.278 -8.61,1.618 -28.86,14.829 -43.61,15.579 h -0.81 c -14.78,0 -35.07,-13.961 -44.4,-15.579 -23.33,-3.863 -39.65,19.52 -55.27,41.278 -5.48,9.371 -10.09,18.722 -14.01,28.011 -1.64,3.192 -2.28,5.481 -3.13,8.579 -7,18.691 -11.68,38.953 -15.56,58.429 -1.52,9.364 -3.13,18.641 -3.93,27.211 -4.63,38.192 -3.88,78.692 3.93,117.571 3.88,17.128 8.56,34.281 15.56,49.851 0.85,2.301 1.49,4.688 3.13,7.008 3.92,8.621 7.77,15.531 12.49,23.312 7.76,10.161 18.64,21.079 30.3,28.028 10.17,7.062 21.86,12.511 34.26,16.359 2.36,0.793 -0.76,-2.289 1.56,-1.566 25.73,-16.332 32.71,-7.731 29.65,-6.981 3.01,0.528 3.73,6.02 4.26,10.008 -6.89,-9.867 -28.5,-8.687 -29.18,7.941 -10.18,-3.171 -21.06,-7.05 -31.18,-11.691 -23.35,14.031 -29.54,31.152 -52.16,34.242 -0.79,0 -2.28,0 -3.13,0.778 h -0.74 l 0.74,-0.778 c 0.85,0 1.49,-0.75 3.13,-1.57 14.01,-7 26.51,-24.152 38.9,-40.5 l -5.49,-3.891 c -15.5,9.34 -23.28,20.239 -33.41,26.489 -0.79,0.8 -2.28,1.55 -3.13,1.55 -4.68,2.321 -9.31,3.891 -15.56,4.661 h -1.52 c 0.76,0 0.76,0 1.52,-0.77 5.43,-2.27 10.17,-6.18 15.56,-10.898 0.85,-0.793 1.49,-2.293 3.13,-3.114 7.77,-7.758 14.77,-17.918 22.62,-27.218 -3.16,-1.571 -5.47,-3.93 -7.85,-7 -6.24,4.64 -10.85,7.718 -14.77,11.66 -1.64,1.55 -2.28,2.289 -3.13,3.14 -4.68,3.84 -9.31,6.961 -15.56,9.328 -3.13,0.793 -6.21,1.512 -10.89,2.332 3.88,-1.539 7.76,-3.929 10.89,-6.269 5.43,-3.891 10.17,-7.781 15.56,-13.191 0.85,-0.77 1.49,-1.571 3.13,-2.36 3.13,-3.922 6.21,-6.98 9.31,-10.898 -0.78,-1.59 -3.1,-3.84 -3.1,-3.84 0,-0.82 -2.29,-3.981 -3.89,-6.262 -0.76,0.731 -1.52,1.551 -2.32,2.281 -1.64,0.821 -2.28,1.618 -3.13,2.34 -6.24,5.481 -10.13,10.149 -15.56,13.258 -4.65,3.121 -9.34,4.711 -17.9,5.481 7.01,-2.36 12.46,-6.282 17.9,-10.918 5.43,-3.93 10.17,-9.34 15.56,-15.59 0.85,-0.782 1.49,-1.532 2.34,-3.102 -0.85,-0.769 -1.49,-2.32 -2.34,-3.871 -1.55,-2.289 -2.34,-3.898 -3.07,-6.289 -5.45,4 -8.61,7.84 -12.49,10.16 -4.65,3.918 -9.34,6.981 -17.9,7.801 7.01,-3.109 12.46,-7.051 17.9,-12.441 3.13,-3.129 6.25,-7 10.17,-10.891 -1.61,-2.367 -3.13,-5.481 -3.92,-8.598 -2.37,2.34 -3.93,3.918 -6.25,4.641 -3.13,2.387 -7.01,3.156 -17.9,5.476 6.24,-2.32 12.46,-7 13.25,-7 0,0 2.3,-2.367 4.65,-5.457 1.56,-1.55 2.32,-3.863 3.13,-5.429 0,-1.571 -0.81,-3.172 -1.57,-4.641 0,0.75 -0.76,1.469 -1.56,1.469 -3.13,2.371 -7.01,3.941 -18.65,5.512 6.2,-2.34 11.64,-5.512 13.21,-6.231 0,0 3.09,-3.922 5.44,-7.031 -2.35,-6.231 -3.93,-12.41 -5.44,-17.899 l -16.33,-1.562 c -1.6,10.93 -12.54,18.691 -21.82,22.57 -1.55,0.762 6.2,0 15.56,-1.539 -4.71,2.301 -12.52,3.891 -18.72,4.711 -5.41,0.75 -9.32,0.75 -7,-0.82 2.34,-1.59 4.72,-2.352 7,-3.891 19.58,-12.461 27.25,-41.281 0,-45.121 0.72,0.66 5.2,4.762 7.06,8.32 -1.47,-1.8 -4.37,-4.379 -7.06,-6 -1.53,-1.539 -3.08,-2.32 -3.84,-2.32 h -8.6 -1.53 c -0.79,0 -0.79,0 -1.57,0.781 -0.78,0 -1.51,0 -2.35,0.75 0.84,0 1.57,0 2.35,0.789 10.13,5.411 25.7,19.469 0,31.879 -1.07,0.711 -2.35,0.91 -3.47,1.41 1.12,-0.617 2.24,-1.32 3.47,-2.179 8.54,-7.008 16.38,-18.699 0,-28.789 -3.91,-1.571 -12.44,0 -15.57,3.89 9.34,0.77 11.66,8.539 11.66,8.539 0,8.582 -4.65,12.481 -11.66,13.25 -7,0.821 -16.37,-2.3 -25.68,-7.808 -13.97,-9.289 -27.27,-26.442 -30.39,-48.262 3.9,10.133 14.81,38.973 30.39,44.383 5.43,2.359 11.64,1.558 17.89,-3.082 -6.25,3.082 -12.46,3.871 -17.89,1.519 -29.66,-12.429 -35.06,-104.3 -4.7,-126.16 -3.87,0 -6.99,1.571 -8.55,1.571 -12.41,-2.27 -21.81,42.871 -18.65,77.128 -4.73,-20.277 -5.49,-46.75 3.07,-66.199 0,0 7.04,-10.929 11.69,-12.5 v -6.16 l -9.35,0.789 c -28.83,36.57 -21.74,136.25 26.49,151.781 3.88,1.571 7,2.34 10.91,2.34 -1.6,1.551 -3.91,2.352 -7.03,3.891 8.56,0.82 15.56,7.031 21.8,12.488 1.58,1.492 3.13,3.07 4.69,3.863 4.65,5.457 7.78,11.688 10.88,17.918 1.57,3.11 3.1,6.231 3.9,9.301 3.91,8.602 7.8,17.168 11.64,25.699 14.01,30.379 28.1,62.313 46.75,67.821 2.32,0.718 3.88,0.718 6.25,0.718 1.51,0 3.92,-0.718 6.24,-0.718 0.73,0 1.52,0 3.07,-0.852 0.85,0 2.34,-0.719 3.13,-1.519 10.9,13.171 3.13,16.351 2.32,16.351 14.06,-1.59 0,-15.551 0,-16.351 1.6,-6.25 8.58,-7.778 14.06,-4.707 7.76,6.226 32.69,-28.043 33.45,-27.25 4.68,2.378 19.45,7.839 27.22,10.128 3.12,0.77 5.5,1.54 5.5,1.54 21,3.171 -17.9,37.421 -12.48,54.511 -3.86,6.239 -10.11,9.36 -14.04,17.149 -0.76,3.121 -1.52,6.949 -1.52,10.121 0,4.668 2.36,20.25 20.3,21.75 14.69,4.73 -5.53,7.84 -5.53,10.961 -0.76,7.777 21.83,14.027 31.19,14.027 -18.74,6.223 -21.86,-3.168 -25.66,2.313 -2.39,3.117 -4.74,6.238 -4.74,13.207 4.74,-1.52 6.98,-4.637 6.98,-3.887 0,-0.75 20.25,1.598 20.25,1.598 0,0 14.81,3.109 13.24,3.109 -2.28,0.75 -12.49,-0.82 -17.91,0 -8.53,3.855 -19.47,6.226 -24.9,10.125 -0.76,0.793 3.08,6.961 3.08,9.355 0,2.313 -5.41,0.75 -5.41,3.086 -4.68,-11.648 -9.37,-22.566 -14.09,-33.476 -3.79,-1.547 -3.79,-4.688 -7.69,-5.43 7.69,-2.348 4.66,-4.687 4.66,-5.461 -3.93,-17.887 -14.87,-32.719 -24.94,-45.18 1.56,0.731 6.29,-6.218 6.29,-14.007 0,-1.551 6.16,-6.262 0.71,-6.262 -7.72,0 -4.65,8.601 -14.74,8.601 -4.7,0 -11.68,-1.519 -15.6,-3.121 -0.79,-0.769 -1.64,-0.769 -2.28,-1.57 0,0 -0.85,0 -0.85,-0.769 -2.34,-0.821 -6.24,-2.29 -8.52,-3.141 h -5.48 c -4.69,1.582 7.76,4.711 10.93,9.383 3.92,3.918 -8.61,-4.672 -12.49,-7.063 -0.76,0 -0.76,-0.738 -0.76,-0.738 -6.25,0 -2.37,3.129 -2.37,3.129 0,0 1.61,0.769 3.13,2.371 3.88,2.301 8.56,4.629 7.76,4.629 0,0 -3.88,-1.57 -7.76,-3.11 -3.13,-1.519 -5.44,-3.121 -5.44,-3.121 -3.12,0 -1.57,1.602 -3.12,2.34 0,0 6.21,2.321 8.56,3.891 -2.35,0 -6.21,-2.328 -6.21,-2.328 -1.6,0 2.28,2.328 6.21,3.918 3.13,1.519 5.43,3.09 4.68,3.09 1.57,0 6.96,3.152 10.88,4.609 0.85,0 2.34,0.801 3.13,1.652 h 0.8 c 3.12,12.457 12.42,25.649 14.8,37.34 3.1,5.457 6.21,10.129 9.3,14.801 2.36,10.117 6.23,22.582 8.51,29.543 3.13,12.453 12.54,29.609 20.31,40.488 2.31,3.125 11.68,6.289 17.09,8.613 4,3.118 6.24,0 10.16,2.344 3.88,-3.164 1.58,-11.687 4.69,-12.527 3.09,-0.742 21.73,-6.172 28.83,-6.172 h 1.54 c 6.21,2.344 17.89,9.344 25.65,13.211 16.42,2.324 33.51,3.144 40.51,-4.688 3.9,-6.179 10.89,-15.574 11.65,-17.871 0.84,-2.371 12.48,-25.73 12.48,-25.73 0,0 4.69,-10.899 4.69,-10.125 0,-0.774 3.84,-3.137 3.84,-3.137 l 16.38,-36.519 c 0,0 2.31,-9.372 4.72,-9.372 0.76,0 5.4,-3.109 10.09,-6.992 7,-7.019 15.57,-14.859 14.81,-14.859 -0.77,0 -3.89,3.172 -3.89,1.652 l -6.23,5.348 c 0,0.84 10.12,-13.18 10.12,-13.18 h -3.12 c 0,0 -7,5.449 -11.69,10.141 -2.36,1.551 -4.69,3.039 -4.69,3.039 0,0 2.33,-2.238 4.69,-5.348 3.09,-4.703 7.77,-10.941 7.77,-10.941 0,0 -4.68,0.769 -7.77,1.59 -1.52,0.75 -2.36,0.75 -2.36,0.75 l -10.14,9.39 3.17,-9.39 c 0,0 -2.68,0.539 -5.43,0.07 4.67,-0.648 9.71,-1.051 14.76,-1.641 9.33,-0.769 17.93,-2.339 20.26,-10.16 2.31,-4.59 0.79,7.821 0.79,13.281 l -0.79,8.571 -20.26,22.57 v 0.82 c -3.16,5.43 -28.78,49.813 -28.78,50.606 0,-0.793 -14.85,24.91 -14.85,24.91 l -17.88,24.102 c 0,0 -30.35,16.336 -29.59,17.929 2.28,6.2 8.53,-7.765 8.53,31.114 0,0.781 10.2,13.25 10.2,15.586 0,3.093 0,3.093 -0.83,5.488 0.83,0.742 1.55,1.523 2.35,2.344 -0.8,6.953 -1.52,13.953 -2.35,20.214 -3.89,7.727 -8.53,14.774 -12.46,22.567 -9.37,3.889 -18.7,7.829 -27.22,12.449 -5.44,0 -11.73,0 -17.13,0.76 h -1.54 -10.94 c -6.25,-1.57 -12.44,-3.09 -19.45,-3.86 -7.05,-0.77 -21.02,-12.462 -21.82,-17.923 -2.32,-25.672 -19.49,-13.993 -6.25,-47.528 -0.76,-3.066 -2.31,-5.41 -2.31,-5.41 0,0 4.68,-13.254 5.45,-13.254 -0.77,0 1.55,-3.847 2.31,-3.847 -0.76,0 6.25,1.566 6.25,1.566 -3.08,-5.5 2.34,-17.133 6.24,-24.203 -4.69,-2.266 -13.25,-3.828 -15.57,-6.18 -5.44,-5.43 -13.26,-17.91 -16.32,-24.133 -3.94,-10.906 -16.39,-26.523 -18.74,-38.152 -0.72,-3.106 -2.36,-10.914 -3.09,-16.367 -3.1,-6.219 -6.24,-11.68 -9.35,-17.117 -2.37,-9.372 -7.77,-21.864 -10.9,-31.942 -0.79,-1.519 -0.79,-2.32 -1.64,-3.84 -0.64,0 -0.64,0 -1.49,-0.789 -5.39,-1.652 -9.31,-3.109 -15.56,-6.261 -3.13,-2.34 -7.01,-3.911 -10.89,-7.008 -1.56,-0.782 -18.69,-23.364 -21.01,-24.942 -5.49,-6.269 -10.89,-13.218 -14.85,-21.761 -6.2,-12.508 -10.81,-27.239 -15.54,-42.071 -4.67,-14.808 -9.31,-27.968 -15.57,-41.297 -6.24,-13.171 -14.77,-24.062 -25.68,-30.32 -4.7,-3.109 -9.42,-4.68 -15.58,-5.473 -3.89,-3.07 -3.89,-2.296 -6.21,-7.808 0.68,0 2.32,-0.719 3.88,-1.469 3.94,-2.41 8.49,-4.711 12.43,-5.461 -47.47,-8.59 -41.23,-129.289 -32.7,-165.058 0,0 15.63,-8.622 16.39,-8.622 2.32,0 6.95,-7.761 10.85,-17.152 3.93,-8.527 7.77,-19.367 10.94,-32.699 7.8,-26.438 16.33,-59.149 25.68,-87.188 4.69,-14.781 10.17,-28.812 15.57,-38.929 4.73,-9.313 10.13,-16.364 15.54,-18.653 0.84,0 2.36,-0.718 3.16,-0.718 4.68,-7.102 7,-7.102 10.85,-4.832 -0.69,-1.45 -1.57,-4.571 -1.57,-4.571 -2.28,-7.769 -6.91,-16.386 -6.91,-16.386 0,0 -2.37,-37.352 0.67,-42.782 -1.48,2.321 -3.84,4.66 -6.2,7 -5.41,7.008 -10.81,14.789 -15.54,22.539 -6.23,10.121 -10.88,20.289 -15.57,28.813 -7,13.226 -13.24,23.359 -19.48,24.18 -2.32,0.738 -3.9,0.738 -6.2,1.539 -14.84,3.871 -24.14,12.449 -29.66,24.148 3.17,4.691 -65.37,119.902 -91.03,91.133 0,0 0,-0.793 0.74,-0.793 32.72,-11.688 84.17,-81.008 81.77,-85.649 -8.53,-42.101 25.71,-31.199 31.97,-56.082 0,0 2.32,-3.168 6.21,-7 6.2,-6.207 14.77,-14.789 25.68,-24.179 4.69,-4.637 10.17,-9.297 15.57,-13.219 5.41,-4.672 10.13,-8.539 15.54,-12.43 1.61,-1.519 2.36,-2.32 3.96,-3.09 10.05,-12.46 25.7,-24.128 42.79,-30.4097 5.43,-2.3203 10.17,-3.8906 15.56,-4.6601 0.85,0 1.49,-0.7891 3.13,-0.7891 1.56,0 3.92,-0.7422 5.44,-0.7422 25.69,-19.5078 5.46,-31.9492 39.7,-37.4297 5.5,-10.0508 21.83,-18.6211 32.81,-23.3789 4.6,-14.7109 20.95,-23.28124 36.54,-23.28124 14.75,-0.82031 29.52,6.23044 34.21,20.94144 10.93,4.7578 28.05,15.6679 33.49,25.7187 34.26,5.4805 14.06,17.9219 39.71,37.4297 7.76,0.7422 16.38,3.0703 24.14,6.1914 17.13,6.2817 32.74,17.9497 42.78,30.4097 1.57,0.77 2.38,1.571 3.92,3.09 5.45,3.891 10.89,7.758 15.57,11.61 5.46,4.742 10.93,9.402 15.54,13.332 11.73,10.828 21.05,19.449 26.53,25.707 3.13,3.011 5.46,5.41 5.46,6.179 8.55,25.704 40.46,13.981 31.88,56.082 -2.3,4.641 49.12,73.961 81.73,85.649 z m -356.93,335.41 v 0 c 0.88,1.211 1.6,2.5 1.97,4.051 h -0.81 c -0.57,0 -0.88,-1.879 -1.16,-4.051 z m 23.04,116.762 v 0 c 4.48,1.148 9.13,2.789 13.93,5.64 -4.27,0.457 -9.24,-1.91 -13.93,-5.64 z m 94.87,-27.871 v 0 c 0.33,0.07 0.52,0 0.85,0.07 -0.33,0.039 -0.65,0.09 -0.97,0.121 0.09,-0.082 0.12,-0.082 0.12,-0.191 z M 2825.54,636 v 0 c 4.68,-9.352 9.29,-19.488 15.54,-28.09 6.2,-7.941 13.08,-14.48 20.57,-19.789 -8.45,6.82 -15.49,15.289 -20.57,25.289 -6.25,14.02 -10.86,28.02 -14.73,41.281 0,0 -0.81,0.719 -0.81,1.539 -3.88,13.25 -8.6,28.051 -15.57,40.461 -3.8,7.668 -8.23,14.7 -13.56,20.989 4.93,-11.18 9.28,-24.52 13.56,-38.09 4.69,-14 9.34,-29.629 15.57,-43.59 z m -177.46,297.383 v 0 h 5.4 c 2.35,-0.781 4.68,-2.324 7,-3.098 -3.16,0 -8.6,1.602 -10.88,1.602 -1.52,0 -3.13,-3.172 -5.44,-3.172 6.23,-4.68 12.4,-10.117 19.45,3.172 1.56,3.097 -10.9,6.222 -18.66,4.609 -4.72,0 -8.6,-0.73 -8.6,-3.894 1.56,0 3.88,-0.715 5.47,-2.317 0.78,1.602 3.84,2.317 6.26,3.098 z m -37.43,0 v 0 l 2.32,-0.781 h 3.92 l 4.68,-3.106 -2.31,-0.781 -3.98,2.344 h -2.31 c -3.84,-0.774 -9.32,-1.563 -9.32,-1.563 z m 3.88,-11.629 v 0 c 5.49,1.559 7.04,4.629 12.5,12.371 -2.41,0.859 -8.61,2.371 -14.06,3.164 -7.79,0.82 -14.77,-0.793 -14.01,-8.574 5.43,0 9.38,-5.402 14.01,-6.184 0,-0.777 0.85,-0.777 1.56,-0.777 z m 10.9,-0.91 v 0 c -3.69,-3.86 -5.76,-12.461 -3.09,-13.156 12.48,7.777 15.57,-3.836 18.73,7.777 -3.93,-0.774 -7.81,-2.27 -8.64,-2.27 -3.09,0 -4.66,2.27 -7.81,1.496 -2.2,-0.488 -0.76,3.739 0.81,6.153 z m 3.91,-113.555 v 0 l -7.77,-1.57 27.22,0.781 h -10.13 c 7,6.219 -12.44,7.012 -9.32,0.789 z M 2602.89,83.9492 v 0 c -24.18,-25.7187 -10.14,-51.3984 1.5,-31.0976 -14.74,2.289 -16.35,6.1797 -1.5,31.0976 z m 67.73,-34.2695 v 0 c -15.58,4.6797 -8.58,24.9219 -14.06,30.3789 1.6,-16.3672 -4.68,-40.457 14.06,-30.3789 z m -27.28,4.6797 v 0 c -1.52,-0.7383 -2.27,-1.5078 -2.27,-1.5078 0,0 -5.52,3.0781 -5.52,3.8984 0,0.7695 -0.73,3.0508 -1.57,4.6211 2.37,0 5.49,0.8203 7.84,0.8203 6.26,9.2969 3.84,8.5 -2.35,18.6367 -2.33,-0.7695 -3.92,-1.5664 -6.21,-2.3398 V 66.8008 h -3.92 v 11.6875 c 0,0 -0.79,0.7734 -1.57,0.7734 -20.21,9.3594 -24.12,-15.5703 0,-17.8906 h 0.78 c 0.79,0 0,-3.1406 -0.78,-3.8516 -0.74,-0.7695 -3.15,-3.1601 -4.63,-3.8984 -2.36,0.7383 -3.88,2.3086 -5.44,3.1289 -9.36,6.1602 -10.97,19.3984 -7.84,22.5117 5.42,3.1485 11.71,5.4571 17.91,7.0274 h 5.49 c 6.97,0 13.21,-2.3399 18.62,-7.0274 3.16,-3.1133 -0.73,-19.4609 -8.54,-24.9023 z m -0.74,-22.5313 v 0 c 0,-2.3398 -2.37,-3.1172 -4.69,-3.1172 -2.36,0 -3.93,0.7774 -4.65,2.25 v 0.8672 1.4922 c 0.72,1.6211 2.29,3.168 4.65,3.168 2.32,0 4.69,-1.5469 4.69,-4.6602 z m -9.34,-7.8476 v 0 -3.1211 c 0,-0.7188 -0.83,-1.5196 -2.35,-1.5196 -0.75,0 -2.36,0.8008 -3.14,1.5196 -0.74,0.8008 -1.55,1.5898 -1.55,3.1211 0,0.75 0.81,2.3906 1.55,3.0898 0.78,0.8399 2.39,1.6406 3.14,1.6406 1.52,0 2.35,-0.8007 2.35,-2.3398 z m -5.49,15.6211 v 0 3.0781 c 0,1.5898 1.57,3.1484 3.14,3.1484 0.81,0 1.52,0 2.35,-0.7695 1.56,-0.7891 2.29,-2.3789 2.29,-3.9492 0,-1.5078 -0.73,-3.0703 -2.29,-3.8711 -0.83,0 -1.54,-0.75 -2.35,-0.75 -1.57,0 -3.14,1.5508 -3.14,3.1133 z m -2.28,-11.6914 v 0 c -2.35,0 -3.15,1.5781 -3.15,3.9179 0,3.1133 0,4.6602 2.28,4.6602 0.87,0 2.41,0 3.15,-0.7695 0.78,-1.6094 1.57,-2.3985 1.57,-3.8907 0,-1.5898 -0.79,-2.3398 -1.57,-3.1172 -0.74,-0.8007 -0.74,-0.8007 -2.28,-0.8007 z m 7.77,59.1484 v 0 c -2.35,0 -3.92,0.8203 -5.49,0.8203 -3.83,0 -7.75,0 -18.64,-1.5898 -3.15,-3.8789 -10.93,-7.8008 -7.8,-16.3282 1.56,-7.0507 16.37,-29.5625 1.56,-32.7226 -1.56,-2.2969 6.24,-6.2774 10.08,-3.918 3.16,2.3985 7.05,9.3594 7.81,13.2695 1.56,-1.5312 3.16,-2.3203 3.16,-2.3203 0,0 1.55,-6.2304 1.55,-5.4882 0,-0.7422 -3.15,-0.7422 -3.15,-0.7422 l -3.92,-5.4883 1.6,-5.4805 c 0,0 4.6,-3.8086 4.6,-3.0898 0,-0.7188 1.6,-5.4297 1.6,-5.4297 0,0 0.81,-0.75 1.55,-0.75 2.39,-0.8203 5.49,-1.582 5.49,-1.582 1.56,0 5.4,1.582 5.4,2.332 0,0.789 0,3.1094 -0.75,4.7109 l 5.43,0.7188 1.61,5.5078 c 0,0 -2.35,7 -2.35,7.75 0,-0.75 -3.94,2.3633 -3.94,2.3633 l 1.57,2.3476 -1.57,3.8789 c 0,0 0.81,1.5821 1.57,2.3516 -0.76,-0.7695 5.43,-11.6914 9.37,-14.8594 3.11,-2.3594 10.88,1.6211 9.31,3.918 -13.96,3.1601 -7.03,24.9531 -4.62,31.1328 1.54,7.7773 -2.41,12.457 -5.5,16.3477 -7.72,0.7695 -12.44,1.5703 -15.53,2.3398 z m 89.54,130.8124 v 0 c -9.32,8.578 -8.64,10.098 -14.05,24.93 -1.52,3.91 -0.8,2.32 3.89,6.98 v 0.797 c 7,-14.789 12.49,-14.008 22.6,-17.098 -10.11,6.18 -10.11,7.75 -15.6,20.192 -2.32,3.156 -0.79,2.387 3.16,6.269 13.22,-15.621 18.66,-14.82 28.78,-17.14 -12.45,5.461 -13.21,7.777 -20.21,19.418 -3.13,4.691 -7.82,0 3.12,10.972 20.18,-17.972 25.62,-17.132 30.34,-17.132 -13.25,5.39 -16.37,10.082 -24.18,21.761 -1.52,0.782 -4.63,0.782 -6.97,-1.519 -15.55,-14.852 -35.81,-31.981 -47.5,-33.5 -21.01,-3.141 -21.8,20.211 -55.27,20.211 -32.71,0 -33.51,-23.352 -54.51,-20.211 -11.65,1.519 -31.91,18.648 -47.51,33.5 -2.35,2.301 -5.45,2.301 -7.01,1.519 -7.78,-11.679 -11.7,-16.371 -24.1,-21.761 3.89,0 10.08,-0.84 30.35,17.132 10.91,-10.972 6.25,-6.281 3.11,-10.972 -6.96,-11.641 -7.8,-13.957 -20.21,-19.418 10.12,2.32 14.73,1.519 28.82,17.14 3.89,-3.882 5.47,-3.113 3.07,-6.269 -6.23,-12.442 -6.23,-14.012 -15.56,-20.192 9.33,3.09 14.77,2.309 21.82,17.098 l 0.74,-0.797 c 4.7,-4.66 5.45,-3.07 3.85,-6.98 -5.41,-14.832 -5.41,-16.352 -14.73,-24.93 9.32,4.66 13.98,3.141 20.98,23.359 33.5,-12.492 42.87,-30.39 71.7,-30.39 29.52,0 38.9,19.519 70.04,30.39 6.99,-20.218 11.72,-18.699 21.04,-23.359 z m 125.36,347.289 v 0 c -38.19,24.899 -42.11,76.27 -62.32,110.57 -9.36,15.551 -20.24,24.129 -36.57,19.391 47.47,5.457 37.32,-98.902 98.89,-129.961 z m -371.39,110.57 v 0 c -21.02,-34.3 -24.14,-85.671 -62.33,-110.57 60.73,31.059 50.67,135.418 98.92,129.961 -16.34,4.738 -27.27,-3.84 -36.59,-19.391 z m 559.02,-292.781 v 0 l -6.26,3.051 -9.33,5.48 9.33,0.782 h 2.38 l 19.43,-10.102 1.55,-21.808 -12.4,-0.782 z m -5.48,-41.32 v 0 h -0.78 l -7.78,3.191 0.81,-8.601 6.97,-7.008 10.96,-9.289 v -31.211 c 0.73,0.777 -7.81,-0.77 -7.81,-0.77 l -3.15,2.348 -9.33,8.539 -5.44,4.692 -3.93,13.281 v 0.679 l -4.65,-20.191 -12.45,-4.641 -7.76,-3.937 7.76,24.148 3.9,10.871 13.2,8.579 4.72,3.113 4.65,7.808 -7.77,4.68 h -1.6 l -17.1,0.75 -5.44,0.75 -2.32,13.281 v 10.168 l 7.76,-8.597 9.38,-10.153 h 7.72 9.37 l 3.87,16.379 -3.87,9.352 h 9.33 3.15 l 5.41,-24.149 z m 7.78,-77.02 v 0 c -2.3,3.09 -5.41,5.411 -8.56,6.942 -3.09,1.64 -6.26,3.179 -9.33,5.488 -1.57,1.563 -3.17,2.352 -3.85,4.672 -1.59,-0.801 -3.92,-0.801 -5.52,-0.801 -2.32,0 -4.65,-0.719 -6.2,-0.719 1.55,-0.8 3.88,-0.8 6.2,-1.589 1.6,0 3.93,-0.782 5.52,-0.782 0,-0.781 1.52,-2.34 3.85,-3.09 2.36,-1.539 5.44,-3.179 5.44,-3.89 0,0 -3.08,0.711 -5.44,1.531 -1.57,0 -3.17,0.82 -3.17,0.82 0.84,-2.351 2.36,-4.671 2.36,-7.05 -2.36,0.769 -5.45,1.558 -8.56,2.379 3.11,-1.61 6.2,-3.911 9.37,-6.301 4.68,-4.617 7.76,-10.047 3.87,-13.207 -1.51,1.566 -3.11,2.386 -3.87,3.879 -3.85,3.168 -7.02,6.23 -9.37,7.05 -2.32,1.508 -3.08,1.508 -2.32,-0.82 -6.22,2.328 -4.61,3.891 -14.78,-9.34 -0.83,0 -0.83,-0.769 -1.55,-1.519 -0.81,0.75 0,4.629 1.55,8.566 1.56,3.922 3.12,8.531 3.9,7.781 -1.57,0.75 -2.34,-0.82 -3.9,-3.16 -2.36,-4.621 -4.67,-11.668 -3.92,-9.277 0.84,5.43 -8.53,13.187 -3.84,17.098 3.09,2.281 5.4,3.921 7.76,6.21 0.76,0.821 1.56,1.559 2.33,2.34 h -2.33 -10.17 c 3.12,2.371 7.09,5.442 10.17,7.782 2.33,1.539 4.69,3.109 7.05,3.886 3.12,1.571 6.16,1.571 10.05,2.391 1.6,0 3.11,0 3.93,0.769 1.59,-0.769 3.87,-1.589 5.44,-1.589 1.55,-0.77 3.87,-1.571 4.68,-2.348 0.76,-2.34 3.08,-3.879 4.65,-6.231 4.71,-5.441 9.36,-10.929 8.56,-17.871 z m -8.56,-14.828 v 0 c -0.78,0 -0.78,-0.769 -1.57,-0.769 3.17,2.386 0.79,9.367 -6.21,21.828 1.52,-2.32 4.69,-3.93 7.78,-6.231 3.15,-1.597 6.26,-3.859 7.83,-6.23 0.73,-2.32 2.25,-3.16 -7.83,-8.598 z m 0,-4.66 v 0 l -6.26,-5.461 c 0,0 -1.52,-0.75 -3.07,-0.75 -2.33,0 -5.44,-0.769 -5.44,-0.769 0,0 -1.58,1.519 -3.93,3.089 -3.08,2.301 -6.2,4.68 -6.2,4.68 l 6.2,-2.379 3.93,-1.461 5.44,1.461 9.33,3.18 3.15,0.73 z m 0,-20.211 v 0 c 5.43,-5.512 13.24,-9.398 14.81,-15.629 1.55,-3.851 -2.33,-19.422 -3.12,-21.769 0,-1.59 -11.69,7.808 -11.69,7.808 3.15,-2.371 2.38,3.059 0,10.879 -2.33,7.813 -6.26,18.711 -9.33,24.16 -1.57,2.34 -2.33,3.121 -3.17,3.891 0.84,-0.77 1.6,-1.551 3.17,-1.551 2.36,-1.558 4.68,-3.14 7,-4.73 0.76,-0.77 1.55,-2.34 2.33,-3.059 z m -18.7,21 v 0 c -3.08,0 -6.93,1.531 -11.65,2.352 -4.69,3.136 4.72,4.629 11.65,3.91 4.72,-0.774 8.56,-2.391 7.04,-5.461 4.69,-2.391 0.76,-2.391 -7.04,-0.801 z m 9.37,-74.719 v 0 c -1.57,-3.961 -2.33,-6.3 -4.65,-9.332 -1.61,0 -3.12,0.75 -4.72,1.481 -13.98,7.851 -9.37,33.519 -0.68,49.832 -7.04,-6.973 -12.52,-10.852 -16.42,-14.793 -4.67,-3.859 -8.55,-6.231 -13.99,-10.07 0,-0.797 -0.81,-0.797 -1.56,-1.571 -6.21,16.352 -3.89,24.903 1.56,30.364 3.82,3.91 8.55,6.226 13.99,8.527 2.33,0.82 5.45,2.34 7.73,3.109 l 9.37,3.961 2.35,0.781 c 1.58,-2.339 4.69,-9.39 7.02,-18.699 3.07,-12.461 4.68,-29.633 0,-43.59 z m -0.81,199.297 v 0 -10.136 l -8.56,-0.782 -3.08,-0.82 -3.85,11.738 6.93,-2.34 2.35,-0.789 c 0,0 4.69,3.129 6.21,3.129 z m -38.11,-3.129 v 0 c 0,0 -0.83,3.903 -1.54,7.789 -0.81,3.903 -2.37,8.571 -2.37,8.571 l 2.37,1.562 13.99,6.981 h 0.76 l 14.02,1.558 2.32,-1.558 9.37,-6.262 3.07,-2.281 h -3.07 l -9.37,-0.77 -9.37,-0.789 -3.04,-7.012 2.36,-12.457 c 0,0 -3.93,4.668 -7.05,8.571 -3.08,3.886 -5.44,7.008 -5.44,7.789 0,-0.781 -6.21,-2.352 -6.21,-2.352 z m 0,-7.789 v 0 c -0.83,0 -0.83,0 -1.54,-0.82 -2.37,-2.238 0,-11.641 0,-13.23 0,0 -4.66,0.8 -7.77,1.589 -2.4,0.801 -4.73,0.801 -4.73,0.801 l -0.79,0.75 -16.33,3.91 -4.7,1.539 -10.09,2.403 -1.55,0.75 -11.69,4.609 -18.7,6.277 18.7,3.114 h 0.8 c 0,0 6.2,-0.774 12.44,-2.34 3.1,0 7,-0.774 10.09,-0.774 1.6,-0.789 3.17,-0.789 4.7,-0.789 0.83,-0.711 1.55,-0.711 1.55,-0.711 0,0 -0.72,-1.617 -1.55,-3.207 -1.53,-3.089 -3.85,-6.929 -3.85,-6.929 0,0 1.56,0.75 3.85,2.238 3.16,1.602 8.56,4.691 8.56,4.691 0,0 3.16,0 7.77,-0.75 1.6,0 3.12,-0.82 5.52,-0.82 3.11,-0.723 6.21,-0.723 7.77,-1.519 2.34,0 3.11,-0.782 1.54,-0.782 z m -70.85,25.711 v 0 l -3.91,2.34 7.01,10.07 c 0,0 3.88,-1.543 8.56,-3.07 4.68,-1.57 9.37,-3.883 9.37,-3.883 0,0 2.32,-2.297 3.87,-3.937 1.53,-0.801 2.34,-2.321 2.34,-2.321 l -2.34,-0.761 -13.24,-3.879 -16.33,-5.512 z m 24.9,40.5 v 0 l 2.34,5.43 -2.34,-13.262 -0.75,-3.91 v -14.73 c 0,-0.797 -10.89,3.121 -10.89,3.121 z m 3.93,42 v 0 c 0,0 3.07,7.778 3.86,6.231 l 2.3,-3.891 3.17,-7 0.72,-6.98 0.81,-0.762 c 0,-2.34 1.55,-5.469 1.55,-5.469 0,0 -0.72,-0.82 -1.55,-2.398 -1.53,-1.543 -3.1,-3.864 -4.7,-6.203 -2.3,-1.52 -3.88,-3.911 -3.88,-3.911 l -3.11,11.692 z m 32.71,-30.383 v 0 h -10.13 l -7.04,-7.738 c 0,0 0.8,-16.39 0.8,-14.801 l -5.48,13.262 -2.29,4.617 2.29,3.133 6.27,10.098 c 0,0 4.61,-2.321 10.06,-3.891 1.6,-0.769 3.92,-1.5 5.52,-2.289 3.83,-1.59 6.21,-2.391 6.21,-2.391 z M 2961,431.211 v 0 l 5.45,0.801 4.66,1.547 -0.74,-7.028 h -3.92 l -4.61,0.77 z m 5.45,-10.16 v 0 c 2.35,-0.781 4.66,-0.781 4.66,-0.781 h 0.86 c 0.75,0.781 6.21,5.511 6.21,5.511 0,0 0.75,6.957 0,7.778 l 1.56,-0.821 5.44,-2.347 1.5,-13.243 c 0,0 -3.83,-1.488 -6.94,-3.109 -2.37,-1.5 -5.45,-2.34 -5.45,-2.34 h -2.32 -5.52 c -3.86,0.84 -7.03,0.84 -7.03,0.84 v 10.121 c 0,0 3.94,-0.82 7.03,-1.609 z m 0,-45.903 v 0 c -5.45,0 -12.38,-0.82 -12.38,0 0,-0.82 -1.6,-0.82 -3.95,-0.82 h -4.7 -10.09 -2.31 c 0,0 0.76,0.82 2.31,1.602 2.34,1.511 5.4,3.121 5.4,3.121 l 4.69,4.668 3.89,3.902 h 0.81 l 16.33,-4.672 5.52,-2.379 5.4,-16.308 c 0,0 -2.29,0.769 -5.4,1.539 -2.4,0.847 -4.73,1.558 -5.52,1.558 h -0.77 l 0.77,0.789 c 0.79,1.543 4.66,7 4.66,7 z m 0,91.102 v 0 l 5.52,3.102 7.77,5.429 6.23,-26.472 -4.69,-6.231 c 0,0 7.01,-2.289 12.45,-4.68 3.9,-1.527 6.29,-2.277 6.29,-2.277 V 407.84 c 0,0 -2.39,-1.512 -6.29,-3.149 -3.92,-1.519 -9.32,-4.589 -13.99,-6.179 -3.94,-2.364 -7.77,-3.121 -7.77,-3.121 h -5.52 -16.33 -1.53 c 0,0 -1.57,6.23 -3.17,10.937 -1.52,3.051 -2.3,6.211 -2.3,6.211 0,0 1.55,6.992 2.3,11.66 v 3.102 c 0,0 2.41,-4.641 4.7,-8.531 1.55,-4.731 3.95,-9.391 3.95,-9.391 0,0 6.93,-0.77 12.38,-1.539 h 5.52 2.32 c 0,0 2.31,0 5.45,0.769 5.44,1.59 13.16,3.09 13.16,3.09 l -3.84,21.039 c 0,0 -4.65,3.133 -9.32,5.461 -3.14,1.59 -5.45,3.879 -7.77,4.699 -2.4,1.571 -3.92,2.301 -3.92,2.301 0,0 -0.81,0.77 -1.6,2.313 -3.86,3.968 -10.85,11.738 -10.85,11.738 z m 25.73,-18.738 v 0 h 1.55 l 17.1,2.398 3.11,0.77 c -0.76,-1.59 0.82,-10.102 0.82,-10.102 0,0 -3.09,-2.379 -3.93,-3.18 0,0 -10.05,2.391 -17.1,3.911 -3.92,0.769 -7.05,1.589 -7.05,1.589 z m 28.02,-13.16 v 0 l 8.55,-0.793 -3.87,-17.129 c 0,0 -2.32,-0.77 -4.68,-0.77 -3.17,-0.801 -7.02,-1.621 -9.37,-2.39 h -2.32 l -2.33,19.468 4.65,0.821 7.04,1.562 z m 9.33,-31.18 v 0 l 5.43,-6.184 h -14.76 l -2.33,-0.84 -7.04,2.364 -3.08,0.797 3.08,2.312 9.37,5.457 3.87,3.121 z m 28.88,-48.211 v 0 c 0.69,0 -1.6,29.519 -2.36,29.519 0.76,0 -16.44,10.911 -16.44,10.911 v 7.039 c 0,0 -6.93,6.949 -10.08,10.109 -0.78,0.731 -0.78,1.5 -1.57,1.5 0.79,0 0.79,0.82 1.57,3.109 2.38,6.282 7.03,17.973 7.03,17.973 0,0 -3.15,0.75 -7.03,2.277 -3.89,0.801 -7.78,2.391 -9.33,3.18 h -0.81 v 13.942 c 0,0 -4.63,-0.75 -8.56,-0.75 -3.08,-0.731 -5.45,-0.731 -5.45,-0.731 h -11.65 -2.36 c -0.72,3.102 -1.56,6.211 -2.31,9.352 -1.57,6.257 -2.38,13.168 -4.65,20.168 -1.56,-0.77 -3.13,-2.27 -4.67,-3.09 -2.37,-1.528 -5.45,-2.297 -7.77,-3.91 -2.4,-1.547 -3.92,-2.34 -5.52,-3.098 -3.86,-2.34 -7.03,-3.813 -10.85,-6.211 -1.53,3.102 -3.93,6.211 -5.48,9.309 -1.53,2.382 -3.1,4.73 -4.7,7 v -0.77 c -3.09,-3.848 -6.16,-7.777 -8.56,-11.668 V 450.68 c -0.72,0 -0.72,0.8 -1.53,0.8 -1.55,0 -3.87,0 -5.43,0.77 v 17.871 c -1.56,6.231 -3.13,11.668 -4.69,17.918 -0.8,-1.519 -2.32,-3.129 -3.12,-4.687 -3.13,-3.063 -7.03,-7 -9.37,-10.133 -1.56,-20.18 3.14,-28.75 -2.29,-47.438 0,-20.242 -3.91,-24.16 -7.78,-31.16 -2.39,-1.57 -10.14,-3.883 -14.78,-6.18 0,-0.82 -0.85,-2.441 -1.64,-4.722 -3.09,-7.789 -9.3,-20.278 -9.3,-21.848 0.73,1.57 3.86,8.617 9.3,14.059 5.52,5.5 12.48,10.871 20.29,6.23 -1.57,-5.461 -9.4,-10.898 -10.89,-16.359 7.02,-3.93 17.09,-8.539 26.46,-13.231 3.12,-1.57 7,-3.16 10.08,-5.461 0.85,0 2.41,0 3.16,-0.789 3.1,-0.8 6.21,-1.5 10.09,-2.269 1.6,-0.821 3.17,-1.621 4.7,-1.621 5.48,-2.321 10.88,-3.86 16.33,-5.43 h 1.6 3.92 c 2.32,0.789 5.4,0.789 7.77,1.57 4.67,0 9.32,0 13.99,0.77 5.45,0.769 10.9,0.769 15.59,1.539 -3.14,-1.539 -9.3,-2.309 -15.59,-3.09 -5.44,-0.789 -10.17,-1.57 -13.99,-2.367 -0.81,-0.774 -1.56,-0.774 -1.56,-0.774 0,-0.82 0.75,-1.539 1.56,-1.539 3.82,-2.328 8.55,-4.687 11.63,-6.98 -3.88,-3.168 -7.81,-5.438 -11.63,-7.789 -2.37,-1.539 -5.45,-3.149 -7.77,-4.699 -2.4,-1.551 -3.92,-2.352 -5.52,-3.891 -2.29,-0.801 -3.86,-2.34 -6.17,-3.961 1.56,0 3.88,0.84 6.17,0.84 h 5.52 7.77 3.82 c -1.48,-4.68 -2.28,-9.34 -3.82,-13.981 -0.81,-3.16 -1.56,-6.277 -2.37,-9.386 0.81,-1.551 1.56,-3.071 2.37,-4.66 0.71,-0.782 0.71,-1.563 1.54,-2.301 v -20.242 c 3.9,-5.481 8.53,-10.938 12.45,-15.579 0.76,-1.57 2.33,-3.16 3.12,-4.691 -0.79,-1.539 -1.56,-2.309 -3.12,-3.09 -3.92,-3.961 -9.32,-7.07 -13.99,-10.168 -3.94,-3.133 -7.02,-6.203 -7.77,-9.359 0,-0.731 0,-0.731 -0.86,-0.731 -0.74,-4.66 0,-9.351 0.86,-14.062 0.75,-5.43 3.11,-11.641 3.83,-17.867 1.57,0.718 2.38,0.718 3.94,1.539 5.44,2.347 10.07,4.687 13.99,7.808 2.33,1.45 3.9,3.09 4.69,5.461 -0.79,-7.808 -4.69,-17.101 -2.36,-24.129 2.36,-6.3 8.57,-10.14 14.77,-14.832 1.6,-0.769 3.93,-2.32 5.52,-3.847 0.68,2.277 2.28,4.597 3.85,6.988 3.07,6.191 7,12.461 8.55,18.719 0,1.519 0.78,2.293 0.78,3.832 0.78,2.347 1.6,4.687 1.6,6.258 l 17.11,-8.571 c 17.94,18.641 -7.75,49.821 -18.71,55.231 -0.78,0.82 -1.57,0.82 -2.33,0.82 0,0 0.76,0.781 2.33,3.121 4.71,4.621 13.24,14.762 13.24,14.762 v 22.629 l -6.21,6.961 8.57,1.57 v 32.648 l -13.22,18.739 13.22,18.742 z M 2268.12,275.48 v 0 c 2.31,-2.289 4.63,-3.929 6.93,-6.21 5.48,-3.911 -3.85,-11.668 -3.11,-17.098 0,-2.391 -1.51,4.656 -3.82,9.277 -1.56,2.34 -3.12,3.91 -3.93,3.16 0,0.75 2.37,-3.859 3.93,-7.781 0.71,-3.937 2.31,-7.816 0.71,-8.566 0,0.75 -0.71,1.519 -0.71,1.519 -10.93,13.231 -9.33,11.668 -14.78,9.34 0.72,2.328 0,2.328 -2.4,0.82 -2.32,-0.82 -5.44,-3.882 -9.32,-7.05 -1.56,-1.493 -2.33,-2.313 -3.89,-3.879 -4.67,3.16 -1.52,8.59 3.89,13.207 2.32,2.39 6.2,4.691 9.32,6.301 -3.12,-0.821 -7,-1.61 -8.57,-2.379 0,2.379 1.57,4.699 2.33,7.05 0,0 -1.56,-0.82 -3.08,-0.82 -2.33,-0.82 -5.41,-1.531 -5.41,-1.531 0,0.711 3.08,2.351 5.41,3.89 1.52,0.75 3.88,2.309 3.88,3.09 1.6,0 3.12,0.782 5.44,0.782 1.56,0.789 3.93,0.789 6.25,1.589 -2.32,0 -4.69,0.719 -6.25,0.719 -2.32,0 -3.84,0 -5.44,0.801 -1.56,-2.32 -2.36,-3.109 -3.88,-4.672 -3.13,-2.309 -6.25,-3.848 -10.13,-5.488 -3.13,-1.531 -5.45,-3.852 -7.8,-6.942 -1.57,6.942 3.87,12.43 7.8,17.871 2.32,2.352 3.88,3.891 5.44,6.231 0.8,0.777 2.36,1.578 4.69,2.348 1.52,0 3.08,0.82 4.64,1.589 1.56,-0.769 3.16,-0.769 4.68,-0.769 3.12,-0.82 6.99,-0.82 10.12,-2.391 2.33,-0.777 4.65,-2.347 7.06,-3.886 3.08,-2.34 6.19,-5.411 9.32,-7.782 h -9.32 -2.41 c 0.85,-0.781 1.56,-1.519 2.41,-2.34 z m 0,-49.851 v 0 c 4.63,-2.301 10.08,-4.617 13.16,-8.527 6.28,-5.461 7.84,-14.012 1.61,-30.364 0,0.774 -0.8,0.774 -1.61,1.571 -4.64,3.839 -8.53,6.211 -13.16,10.07 -4.73,3.941 -9.33,7.82 -17.18,14.793 9.37,-16.313 14.06,-41.981 0,-49.832 -1.52,-0.731 -3.12,-1.481 -5.44,-1.481 -1.56,3.032 -3.13,5.371 -3.88,9.332 -4.69,13.957 -3.13,31.129 0,43.59 2.32,9.309 4.64,16.36 6.2,18.699 l 3.12,-0.781 8.52,-3.961 c 3.21,-0.769 5.54,-2.289 8.66,-3.109 z m -36.63,-19.43 v 0 c -1.52,-7.82 -2.32,-13.25 0,-10.879 0,0 -11.69,-9.398 -11.69,-7.808 0,2.347 -3.89,17.918 -3.08,21.769 2.32,6.231 10.08,10.117 14.77,15.629 1.57,0.719 2.32,2.289 3.12,3.059 1.6,1.59 4.68,3.172 7.01,4.73 0.75,0 1.52,0.781 3.08,1.551 -0.76,-0.77 -2.33,-1.551 -3.08,-3.891 -3.13,-6.269 -7.81,-16.347 -10.13,-24.16 z m 11.65,40.512 v 0 c -0.77,3.07 3.12,4.687 7.8,5.461 6.99,0.719 15.62,-0.774 11.73,-3.91 -4.74,-0.821 -8.61,-2.352 -11.73,-2.352 -7.8,-1.59 -11.65,-1.59 -7.8,0.801 z m -11.65,-1.59 v 0 l -2.32,2.32 2.32,-0.73 10.13,-3.18 5.48,-1.461 3.84,1.461 6.25,2.379 c 0,0 -3.85,-2.379 -6.25,-4.68 -2.32,-1.57 -3.84,-3.089 -3.84,-3.089 0,0 -3.16,0.769 -5.48,0.769 -1.56,0 -3.13,0.75 -3.13,0.75 z m -6.97,13.258 v 0 c 0.72,2.371 3.84,4.633 6.97,6.23 3.12,2.301 6.24,3.911 8.57,6.231 -7,-12.461 -9.33,-19.442 -6.25,-21.828 -0.75,0 -1.56,0.769 -2.32,0.769 -9.37,5.438 -8.57,6.278 -6.97,8.598 z m -3.15,30.332 v 0 31.211 l 10.12,9.289 7.8,7.008 0.77,8.601 -8.57,-3.191 -7.8,14.062 5.48,24.149 h 2.32 10.13 l -3.89,-9.352 3.89,-16.379 h 9.32 7.85 l 9.33,10.153 7.76,8.597 v -10.168 l -3.13,-13.281 -4.63,-0.75 -17.18,-0.75 h -1.52 l -7.8,-4.68 4.64,-7.808 4.68,-3.113 13.25,-8.579 3.93,-10.871 7.76,-24.148 -7.76,3.937 -12.49,4.641 -4.69,20.191 v -0.679 l -3.84,-13.281 -5.48,-4.692 -10.13,-8.539 -2.32,-2.348 c 0,0 -8.57,1.547 -7.8,0.77 z m -12.41,71.641 v 0 l 1.51,21.808 19.5,10.102 h 1.52 l 10.13,-0.782 -10.13,-5.48 -5.45,-3.051 -4.67,-23.379 z m 22.53,42.82 v 0 l 6.24,7.027 3.89,-3.121 9.32,-5.457 3.12,-2.312 -3.12,-0.797 -7,-2.364 -2.32,0.84 h -10.13 -4.69 z m 10.13,31.18 v 0 l 2.32,0.769 7,-1.562 4.69,-0.821 -2.29,-19.468 h -2.4 c -3.12,0.769 -6.24,1.589 -9.32,2.39 -3.13,0 -4.69,0.77 -4.69,0.77 l -3.87,17.129 z m 6.2,16.328 v 0 l 3.12,-0.77 17.18,-2.398 h 1.52 l 4.67,-4.614 c 0,0 -3.11,-0.82 -6.19,-1.589 -7.06,-1.52 -17.18,-3.911 -17.18,-3.911 -1.52,0.801 -3.84,3.18 -3.84,3.18 0,0 1.52,8.512 0.72,10.102 z m 33.46,24.101 v 0 l 8.61,-5.429 5.41,-3.102 10.09,-7 c 0,0 -6.89,-7.77 -10.09,-11.738 l -2.3,-2.313 c 0,0 -1.55,-0.73 -3.11,-2.301 -2.33,-0.82 -5.45,-3.109 -8.61,-4.699 -4.64,-2.328 -9.34,-5.461 -9.34,-5.461 l -3.82,-21.039 c 0,0 7.76,-1.5 13.16,-3.09 3.16,-0.769 5.48,-0.769 5.48,-0.769 h 3.13 5.41 c 5.51,0.769 11.69,1.539 11.69,1.539 0,0 2.31,4.66 4.67,9.391 2.35,3.89 3.93,8.531 3.93,8.531 0,0 0.79,-1.52 0.79,-3.102 0.72,-4.668 1.57,-11.66 1.57,-11.66 0,0 -0.85,-3.16 -1.57,-6.211 -1.56,-4.707 -3.88,-10.937 -3.88,-10.937 h -0.84 -16.36 -5.41 -0.77 c 0,0 -3.11,0.757 -7.84,3.121 -3.84,1.59 -9.34,4.66 -13.16,6.179 -3.93,1.637 -7.06,3.149 -7.06,3.149 v 27.281 c 0,0 3.13,0.75 7.06,2.277 5.41,2.391 11.6,4.68 11.6,4.68 l -4.67,6.231 z m 8.61,-41.222 v 0 l 5.41,-1.547 4.67,-0.801 -0.72,-3.91 -3.95,-0.77 h -4.66 z m -7,-7.778 v 0 c 0,0 5.43,-4.73 7,-5.511 0,0 2.35,0 5.41,0.781 3.2,0.789 6.23,1.609 6.23,1.609 v -10.121 c 0,0 -3.03,0 -6.23,-0.84 h -5.41 -3.13 c 0,0 -2.32,0.84 -5.48,2.34 -3.08,1.621 -6.97,3.109 -6.97,3.109 l 1.57,13.243 5.4,2.347 1.61,0.821 c -0.8,-0.821 0,-7.778 0,-7.778 z m 28.77,10.09 v 0 l 1.61,-3.133 -1.61,-4.617 -5.44,-13.262 c -0.83,-1.589 0,14.801 0.77,14.801 -0.77,0 -7.74,7.738 -7.02,7.738 h -4.67 -5.41 -7 c 0,0 3.12,0.801 7,2.391 1.56,0.789 3.11,1.52 5.41,2.289 4.67,1.57 10.09,3.891 10.09,3.891 z m 0,19.508 v 0 c 0,0.762 0.84,0.762 0.84,0.762 v 6.98 l 3.88,7 1.57,3.891 c 0.72,1.547 3.83,-6.231 3.83,-6.231 l 0.8,-18.691 -3.08,-11.692 c 0,0 -1.55,2.391 -3.12,3.911 -1.56,2.339 -3.11,4.66 -4.72,6.203 -0.77,1.578 -1.56,2.398 -1.56,2.398 0,0 0.79,3.129 1.56,5.469 z m 14.08,-29.598 v 0 l 11.62,-23.351 c 0,0 -10.09,-3.918 -10.09,-3.121 l -0.79,14.73 -0.74,3.91 -2.39,13.262 z m 22.55,-28.09 v 0 l 6.94,-10.07 -3.82,-2.34 4.64,-10.953 -16.37,5.512 -13.94,3.879 -1.59,0.761 c 0,0 0.76,1.52 1.59,2.321 2.25,1.64 4.65,3.937 4.65,3.937 0,0 4.69,2.313 9.29,3.883 4.72,1.527 8.61,3.07 8.61,3.07 z m -8.61,-35.82 v 0 l -11.69,-4.609 -2.25,-0.75 -9.36,-2.403 -4.72,-1.539 -16.36,-3.91 -1.54,-0.75 c 0,0 -1.52,0 -3.87,-0.801 -3.88,-0.789 -7.8,-1.589 -8.61,-1.589 0.81,1.589 3.16,10.992 0,13.23 0,0.82 -0.75,0.82 -1.56,0.82 -0.71,0 0,0.782 1.56,0.782 2.41,0.796 5.48,0.796 8.61,1.519 1.56,0 3.87,0.82 5.41,0.82 3.95,0.75 7.8,0.75 7.8,0.75 0,0 4.67,-3.089 8.56,-4.691 2.35,-1.488 3.93,-2.238 3.93,-2.238 0,0 -2.32,3.84 -3.93,6.929 -0.77,1.59 -1.56,3.207 -1.56,3.207 0,0 0.79,0 1.56,0.711 1.61,0 3.16,0 4.72,0.789 3.12,0 6.2,0.774 9.36,0.774 6.94,1.566 13.18,2.34 13.18,2.34 h 0.76 l 18.69,-3.114 z m -44.38,6.277 v 0 -0.789 c -0.72,0 -3.06,-0.711 -5.41,-1.558 -3.13,-0.77 -6.2,-1.539 -6.2,-1.539 l 5.43,16.308 h 0.77 l 5.41,2.379 16.36,4.672 4.72,-3.902 3.88,-4.668 c 0,0 3.89,-1.61 5.48,-3.121 1.53,-0.782 2.25,-1.602 2.25,-1.602 h -2.25 -9.36 -4.72 c -2.36,0 -4.67,0 -4.67,0.82 0,-0.82 -7.02,0 -11.69,0 h -5.41 c 0,0 3.87,-5.457 5.41,-7 z m -37.37,2.34 v 0 l -3.87,-11.738 -3.12,0.82 -8.57,0.782 v 10.136 c 1.57,0 6.25,-3.129 6.25,-3.129 l 2.32,0.789 z m 2.38,11.672 v 0 l -9.37,0.789 -9.32,0.77 h -3.13 l 3.13,2.281 9.32,6.262 2.4,1.558 13.93,-1.558 h 0.85 l 13.16,-6.981 2.41,-1.562 c 0,0 -0.8,-4.668 -2.41,-8.571 -0.75,-3.886 -1.56,-7.789 -1.56,-7.789 l -0.71,9.34 c 0,0 -5.48,1.571 -5.48,2.352 0,-0.781 -3.1,-3.903 -5.41,-7.789 -3.93,-3.903 -7.06,-8.571 -7.06,-8.571 l 2.33,12.457 z m 29.58,-68.519 v 0 c -3.13,1.55 -5.45,3.16 -8.61,4.699 -3.08,2.351 -6.97,4.621 -11.64,7.789 3.11,2.293 8.56,4.652 11.64,6.98 0.81,0 1.61,0.719 2.41,1.539 -0.8,0 -1.6,0 -2.41,0.774 -3.08,0.797 -8.53,1.578 -13.16,2.367 -6.28,0.781 -13.25,1.551 -16.38,3.09 5.45,-0.77 10.93,-0.77 16.38,-1.539 4.63,-0.77 9.32,-0.77 13.16,-0.77 3.16,-0.781 5.48,-0.781 8.61,-1.57 h 3.11 2.3 c 5.51,1.57 10.92,3.109 16.36,5.43 1.61,0 3.16,0.8 4.72,1.621 3.12,0.769 6.2,1.469 9.36,2.269 1.53,0.789 2.25,0.789 3.89,0.789 3.05,2.301 6.16,3.891 10.05,5.461 8.61,4.692 19.54,9.301 25.66,13.231 -0.73,5.461 -9.29,10.898 -10.11,16.359 7.87,4.641 14.8,-0.73 20.3,-6.23 4.63,-5.442 8.53,-12.489 9.37,-14.059 -0.84,1.57 -6.24,14.059 -9.37,21.848 -0.79,2.281 -1.64,3.902 -2.32,4.722 -4.7,2.297 -11.72,4.61 -13.99,6.18 -4.69,7 -8.58,10.918 -8.58,31.16 -5.43,18.688 0,27.258 -1.59,47.438 -2.28,3.133 -6.21,7.07 -9.37,10.89 -1.48,0.801 -2.32,2.411 -3.08,3.93 -2.37,-6.25 -3.08,-11.687 -4.69,-17.918 V 452.25 c -2.28,-0.77 -3.92,-0.77 -6.17,-0.77 l -0.83,-0.8 v 19.441 c -3.13,3.891 -5.41,7.82 -8.53,11.668 l -0.79,0.77 c -0.77,-2.27 -2.32,-4.618 -3.93,-7 -2.36,-3.098 -3.89,-6.207 -6.27,-9.309 -3.06,2.398 -6.89,3.871 -10.09,6.211 -2.3,0.758 -3.85,1.551 -5.41,3.098 -3.13,1.613 -5.45,2.382 -8.61,3.91 -1.56,0.82 -3.08,2.32 -4.64,3.09 -1.59,-7 -3.11,-13.911 -4.7,-20.168 -0.74,-3.141 -1.51,-6.25 -1.51,-9.352 h -2.31 -11.73 c 0,0 -2.33,0 -5.45,0.731 -4.68,0 -8.57,0.75 -8.57,0.75 v -13.942 h -0.75 c -1.56,-0.789 -6.25,-2.379 -10.13,-3.18 -3.13,-1.527 -6.25,-2.277 -6.25,-2.277 0,0 3.93,-11.691 6.25,-17.973 0.76,-2.289 1.57,-3.109 1.57,-3.109 0,0 -0.81,-0.769 -1.57,-1.5 -3.13,-3.16 -9.37,-10.109 -9.37,-10.109 v -7.039 l -17.09,-10.911 -2.35,-29.519 h 14.04 c -0.81,0 13.25,-18.742 13.25,-18.742 0,0 -14.06,-18.739 -13.25,-18.739 -0.81,0 -0.81,-32.648 0,-32.648 -0.81,0 8.52,-1.57 8.52,-1.57 l -6.96,-6.961 v -22.629 c 0,0 9.28,-10.141 13.21,-14.762 1.57,-2.34 3.12,-3.121 3.12,-3.121 -0.8,0 -1.55,0 -3.12,-0.82 -10.89,-5.41 -35.79,-36.59 -17.94,-55.231 l 17.18,8.571 c 0,-1.571 0,-3.911 0.76,-6.258 0.76,-1.539 1.57,-2.313 1.57,-3.832 1.55,-6.258 4.67,-12.528 8.56,-18.719 1.52,-2.391 2.32,-4.711 3.88,-6.988 1.6,1.527 3.12,3.078 5.44,3.847 5.45,4.692 12.45,8.532 14.77,14.832 2.41,7.028 -1.52,16.321 -2.32,24.129 0.8,-2.371 2.32,-4.011 4.73,-5.461 3.08,-3.121 8.52,-5.461 13.16,-7.808 1.61,-0.821 3.16,-0.821 3.93,-1.539 0.8,6.226 3.11,12.437 4.68,17.867 0.75,4.711 1.56,9.402 0,14.062 v 0.731 c -1.57,3.156 -4.68,6.226 -8.61,9.359 -3.84,3.098 -9.34,6.207 -13.16,10.168 -1.56,0.781 -2.41,1.551 -3.93,3.09 1.52,1.531 2.37,3.121 3.93,4.691 3.82,4.641 7.76,10.098 11.6,15.579 v 20.242 c 0.81,0.738 1.56,1.519 1.56,2.301 1.61,1.589 2.41,3.109 3.16,4.66 -0.75,3.109 -1.55,6.226 -3.16,9.386 -0.75,4.641 -2.27,9.301 -3.84,13.981 h 3.84 8.61 5.41 c 2.36,0 4.67,-0.84 6.23,-0.84 -2.28,1.621 -4.64,3.16 -6.23,3.961 -2.3,1.539 -3.85,2.34 -5.41,3.891 z m 570.68,-86.442 v 0 h -14.77 l 10.09,-6.187 -24.09,-7 14,-2.371 c 0,0 19.45,9.371 26.49,9.371 7.77,0 12.42,19.468 15.58,23.308 15.52,21.821 31.09,43.621 46.71,65.43 10.84,7.73 21.81,16.379 31.87,24.078 -28.02,5.512 -55.29,15.582 -80.9,29.613 -3.93,-8.48 -7.89,-16.332 -12.48,-24.871 l -12.5,-38.968 -16.33,-50.59 -14.85,-35 c 0,0 6.32,5.386 6.32,6.207 0,-0.821 13.98,0.793 13.98,0.793 0.67,0 -8.61,9.347 -8.61,9.347 l 10.93,-1.621 -8.52,8.582 7.76,0.821 -3.93,10.121 c 0,0 10.93,2.316 8.57,2.316 2.36,0 -2.33,13.211 -2.33,13.211 0,0 13.26,2.352 16.4,5.481 1.54,1.57 -14.07,3.921 -14.07,5.46 0,2.309 23.38,3.872 23.38,4.661 0,0.8 -21.74,4.687 -21.74,4.687 h 17.86 c 0,0 -14.01,6.211 -14.01,6.981 0,-0.77 11.69,-0.77 11.69,0 0,-0.77 -8.53,9.3 -8.53,9.3 l 3.07,6.27 1.49,9.332 3.97,2.379 v 11.648 c 2.32,2.321 5.44,4.66 7.72,7.012 v 11.66 c 1.6,0.75 3.16,2.34 4.76,3.141 0.68,2.308 -3.16,10.89 1.47,6.23 4.73,-5.461 64.65,-25.722 63.1,-24.922 -1.53,0.719 -10.86,-10.898 -16.34,-9.379 -6.25,1.532 -14.82,0.801 -14.82,0.801 l 1.61,-10.09 -31.95,2.36 c 0,0 28.02,-12.531 28.02,-14.051 0,-1.531 -40.46,10.891 -40.46,11.691 -1.29,-0.64 23.3,-14.41 33.59,-18.421 l -32.11,7.5 c 0,0 30.42,-15.579 30.42,-14.809 0,-0.77 -24.94,6.23 -24.94,6.23 l 19.51,-13.23 -17.1,2.367 14.71,-9.348 c 0,0 -21.75,0 -21.75,0.75 -3.92,-0.75 18.61,-6.96 18.61,-6.96 h -18.61 l 13.24,-7.071 c 0,0 -24.93,-3.07 -24.93,-2.328 0,-0.742 20.2,-3.902 20.2,-3.902 l -24.89,-2.328 18.66,-3.11 -24.14,-4.66 h 22.62 l -25.71,-6.211 17.94,-1.59 -25.7,-1.531 z m -441.44,10.121 v 0 l -9.36,-8.582 10.91,1.621 c 0,0 -9.35,-9.347 -8.56,-9.347 0,0 13.97,-1.614 13.97,-0.793 0,-0.821 6.25,-6.207 6.25,-6.207 l -14.82,35 -16.32,50.59 -12.41,38.968 c -4.73,8.539 -8.63,16.391 -12.49,24.871 -26.46,-14.031 -53.72,-24.101 -81.72,-29.613 10.81,-7.699 21.8,-16.348 32.69,-24.078 15.57,-21.809 31.1,-43.609 46.62,-65.43 3.2,-3.84 7.86,-23.308 15.63,-23.308 7.04,0 26.45,-9.371 26.45,-9.371 l 14.05,2.371 -24.11,7 10.06,6.187 h -14.77 l 14.77,8.59 -25.67,1.531 17.95,1.59 -25.72,6.211 h 22.55 l -24.05,4.66 18.65,3.11 -24.94,2.328 c 0,0 20.26,3.16 20.26,3.902 0,-0.742 -24.97,2.328 -24.97,2.328 l 13.28,7.071 h -18.7 c 0,0 22.61,6.21 18.7,6.96 0,-0.75 -21.82,-0.75 -21.82,-0.75 l 14.81,9.348 -17.08,-2.367 19.44,13.23 c 0,0 -24.92,-7 -24.92,-6.23 0,-0.77 30.32,14.809 30.32,14.809 l -32.65,-7.661 c 9.71,3.789 35.54,17.942 34.17,18.582 0,-0.8 -40.37,-13.222 -40.37,-11.691 0,1.52 28,14.051 28,14.051 l -31.94,-2.36 1.57,10.09 c 0,0 -9.32,0.731 -14.85,-0.801 -5.41,-1.519 -14.72,10.098 -16.33,9.379 -1.56,-0.8 58.37,19.461 63.08,24.922 4.68,4.66 0.79,-3.922 1.56,-6.23 1.56,-0.801 3.12,-2.391 4.73,-3.141 V 337 c 2.28,-2.352 5.4,-4.691 7.76,-7.012 V 318.34 l 3.84,-2.379 1.59,-9.332 3.08,-6.27 c 0,0 -8.51,-10.07 -8.51,-9.3 0,-0.77 11.64,-0.77 11.64,0 0,-0.77 -14,-6.981 -14,-6.981 h 17.88 c 0,0 -21.78,-3.887 -21.78,-4.687 0,-0.789 23.38,-2.352 23.38,-4.661 0.73,-1.539 -15.61,-3.89 -14.08,-5.46 3.17,-3.129 16.42,-5.481 16.42,-5.481 0,0 -4.69,-13.211 -2.34,-13.211 -2.35,0 8.53,-2.316 8.53,-2.316 l -3.87,-10.121 8.56,-0.821"
         style="fill:#231f20;fill-opacity:1;fill-rule:nonzero;stroke:none"
         id="path18" /><path
         d="m 2725.89,446.762 c -0.76,0 -2.34,0.75 -3.09,0.75 -0.81,0 -1.57,0.816 -2.41,0.816 v 3.891 c -1.51,0.781 -2.26,0.781 -3.88,1.519 -0.71,0 -2.35,0 -3.87,0.821 -1.57,0 -2.3,0.8 -3.89,0.8 -1.52,0.782 -2.3,0.782 -3.91,0.782 v -3.922 c -0.73,0 -1.52,0 -2.28,0.781 -0.76,0 -2.36,0 -3.18,0.738 v 3.903 c 0.82,3.121 2.42,5.5 3.18,8.609 2.28,4.672 3.89,8.559 6.19,13.25 1.59,3.078 2.32,6.23 3.89,9.34 1.52,-3.93 2.41,-7.801 3.87,-11.692 2.37,-5.437 3.88,-10.16 6.29,-15.57 0.75,-3.937 2.33,-7.84 3.09,-10.898 z m -23.33,42.078 v 0 c 1.55,6.18 2.28,13.211 3.1,19.461 0.79,-3.16 2.26,-5.449 3.09,-8.621 0.8,-1.539 0.8,-3.071 1.59,-4.66 -0.79,-0.77 -0.79,-2.27 -1.59,-3.129 -2.3,-4.621 -3.91,-9.313 -6.19,-13.969 -0.76,-1.594 -1.57,-3.113 -2.36,-5.442 0.79,5.442 1.6,10.872 2.36,16.36 z m 0,42 v 0 h 1.55 c 0,-1.551 -0.79,-3.11 -0.79,-3.86 0,0 0,0.75 -0.76,1.571 0,0.738 -0.76,1.519 -0.76,3.058 z m 6.19,-3.11 v 0 1.559 c 1.59,0 2.32,-0.738 3.89,-0.738 1.52,0 2.41,-0.821 3.87,-0.821 v -2.332 c 0.81,-3.898 1.62,-7.75 1.62,-11.687 0,-1.563 -0.81,-3.082 -1.62,-3.859 -1.46,-3.122 -2.35,-6.27 -3.87,-9.403 v 0.801 c -1.57,3.172 -2.3,7.051 -3.89,10.898 -0.83,1.563 -1.52,3.161 -1.52,4.68 0,3.922 0.69,7.82 1.52,10.902 z m 14.05,-44.378 v 0 c 0.75,-5.43 1.53,-10.872 2.33,-16.364 -0.8,2.34 -1.58,3.934 -2.33,6.282 -2.41,5.441 -3.92,10.839 -6.29,16.289 0,1.55 -0.71,3.191 -1.46,4.691 0.75,0.77 1.46,2.359 1.46,3.172 0.81,2.258 2.37,4.629 3.13,7 0.75,-7 1.59,-14.024 3.16,-21.07 z m 0,42.046 v 0 h 0.75 c 0,-0.75 -0.75,-1.519 -0.75,-3.128 -0.81,0 -0.81,-0.77 -0.81,-0.77 0,1.609 -0.76,3.148 -0.76,4.641 0.76,0 0.76,0 1.57,-0.743 z m -83.33,29.614 v 0 c -3.12,0 -5.52,0.769 -8.61,0.769 -3.09,0 -5.37,-0.769 -8.52,-0.769 v 32.687 h 8.52 8.61 z m 0,-45.16 v 0 h -17.13 v 31.91 c 3.15,0.816 5.43,0.816 8.52,0.816 3.09,0 5.49,0 8.61,-0.816 z m 0,-54.493 v 0 c -3.12,0.782 -5.52,0.782 -8.61,0.782 -3.09,0 -5.37,0 -8.52,-0.782 v 33.481 c 0,3.91 3.88,9.301 8.52,9.301 4.69,0 8.61,-5.391 8.61,-9.301 z m -77.1,-1.621 v 0 C 2561.58,453 2560.06,453 2559.31,453 c -0.81,-0.781 -1.61,-0.781 -2.38,-0.781 v 3.922 c -1.56,0 -2.31,0 -3.91,-0.782 -0.81,0 -2.38,-0.8 -3.84,-0.8 -1.61,-0.821 -2.32,-0.821 -3.86,-0.821 -1.58,-0.738 -2.4,-0.738 -3.95,-1.519 v -3.891 c -0.85,0 -1.52,-0.816 -1.52,-0.816 -1.64,0 -3.16,-0.75 -3.92,-0.75 v 3.918 c 0.76,3.058 2.28,6.961 3.92,10.898 1.52,5.41 3.07,10.902 5.47,15.57 1.54,3.891 2.25,7.762 3.86,11.692 1.46,-3.11 3.03,-6.262 3.84,-9.34 2.35,-4.691 3.91,-8.578 6.29,-13.25 0.75,-3.109 2.27,-5.488 3.06,-8.609 z m -22.52,29.614 v 0 c 0.67,7.046 1.52,14.07 2.28,21.07 0.79,-2.371 2.36,-4.742 3.19,-7 0.72,-0.813 0.72,-2.402 1.54,-3.172 -0.82,-1.5 -0.82,-3.141 -1.54,-4.691 -2.4,-5.45 -3.95,-10.848 -5.47,-16.289 -0.81,-2.348 -1.64,-3.942 -2.37,-6.282 0.73,5.492 1.56,10.934 2.37,16.364 z m -1.64,42.046 v 0 h 1.64 c 0,0.743 0.67,0.743 0.67,0.743 0,-1.493 0,-3.032 -0.67,-4.641 v 0.77 c -0.81,1.609 -1.64,2.378 -1.64,3.128 z m 7.11,-0.75 v 0 3.082 c 1.54,0 2.25,0.821 3.86,0.821 1.46,0 2.4,0.738 3.84,0.738 v -0.738 c 0.75,-3.903 1.6,-7.801 1.6,-11.723 0,-1.519 -0.85,-3.117 -1.6,-4.68 -0.81,-3.847 -2.38,-7.726 -3.84,-11.699 -1.61,3.133 -2.32,6.281 -3.86,9.403 -0.83,0.777 -0.83,2.296 -1.58,3.859 0.75,3.937 0.75,7.789 1.58,10.937 z m 13.99,-35.808 v 0 c 0.75,-5.488 1.54,-10.918 2.27,-16.36 -0.73,2.329 -1.52,3.848 -2.27,5.442 -2.38,4.656 -3.94,9.348 -6.29,13.969 0,0.859 -0.81,2.359 -1.44,3.129 0.63,1.589 1.44,3.121 1.44,4.66 0.75,3.172 2.35,5.461 3.11,8.621 0.8,-6.25 1.57,-13.281 3.18,-19.461 z m 0,42 v 0 l 0.75,0.769 c 0,-1.539 -0.75,-2.32 -0.75,-3.058 -0.81,-0.821 -0.81,-1.571 -0.81,-1.571 0,0.75 -0.8,2.309 -0.8,3.86 z m 181.34,-88.738 v 0 3.867 c -3.07,0.793 -6.21,2.359 -8.57,3.14 -3.08,20.993 -6.19,42 -9.28,63.039 2.33,3.891 3.86,7.793 5.44,11.731 3.84,-1.609 8.53,-3.129 12.41,-3.938 v 9.348 4.672 c -4.63,1.59 -9.28,3.129 -14.76,4.711 v -3.891 c -0.76,0 -2.34,0.77 -3.09,0.77 -0.81,0.769 -1.57,0.769 -2.41,0.769 v 3.871 c -1.51,0.821 -2.26,0.821 -3.88,1.571 -0.71,0 -2.35,0.816 -3.87,0.816 -1.57,0.723 -2.3,0.723 -3.89,1.524 -1.52,0 -2.3,0 -3.91,0.75 v -3.84 h -2.28 c -0.76,0.75 -2.36,0.75 -3.18,0.75 v 4.707 c -5.4,0.722 -10.08,1.519 -14.71,3.062 v -4.679 -10.071 c 3.83,-0.82 8.52,-1.551 12.44,-2.371 1.52,-4.68 3.09,-9.301 4.69,-13.988 -2.42,-20.281 -5.49,-39.711 -8.61,-59.192 -2.29,0 -5.46,0.79 -8.52,1.532 v -4.621 -5.461 c -6.29,0.769 -12.5,1.539 -18.71,2.32 v 68.5 67.738 c -11.67,0.774 -23.36,1.571 -35.1,2.391 -11.6,-0.82 -23.3,-0.82 -34.98,-2.391 V 521.5 453 c -6.23,-0.781 -12.44,-1.551 -18.69,-2.32 v 5.461 4.621 c -3.09,-0.742 -5.45,-1.532 -8.61,-1.532 -3.13,19.481 -6.21,38.911 -8.52,59.192 1.52,4.687 3.12,9.308 4.69,13.988 4.64,0.82 8.51,1.551 12.44,2.371 v 10.071 4.679 c -4.69,-1.543 -9.36,-2.34 -14.82,-3.062 v -4.707 c -0.79,0 -2.31,0 -3.06,-0.75 h -2.38 v 3.84 c -1.56,0 -2.31,-0.75 -3.91,-0.75 -0.81,-0.801 -2.38,-0.801 -3.84,-1.524 -1.61,0 -2.32,-0.816 -3.86,-0.816 -1.58,-0.75 -2.4,-0.75 -3.95,-0.75 v -4.692 c -0.85,0 -1.52,0 -1.52,-0.769 -1.64,0 -3.16,-0.77 -3.92,-0.77 v 3.891 c -5.48,-1.582 -10.17,-3.121 -14.78,-4.711 v -4.672 -9.348 c 3.81,1.559 8.57,2.329 12.46,3.938 1.53,-3.938 3.08,-7.84 5.43,-11.731 -3.11,-21.039 -6.25,-42.046 -9.32,-63.039 -2.36,-0.781 -5.44,-2.347 -8.57,-3.14 v -3.867 -5.43 c -3.92,-1.57 -7.05,-3.141 -10.97,-4.684 v -28.039 c 9.37,3.86 19.54,7.02 29.67,10.121 1.52,0 3.07,0.77 5.47,1.539 1.54,0 2.25,0.801 3.86,0.801 1.46,0 2.4,0.789 3.84,0.789 2.35,0.77 3.91,0.77 6.29,1.59 11.64,2.281 24.13,4.641 36.57,6.191 11.68,0.782 23.38,1.551 34.98,1.551 11.74,0 23.43,-0.769 35.1,-1.551 12.42,-1.55 24.94,-3.91 36.6,-6.191 2.28,-0.82 3.89,-0.82 6.19,-1.59 1.59,0 2.32,-0.789 3.89,-0.789 1.52,0 2.41,-0.801 3.87,-0.801 2.37,-0.769 3.88,-1.539 6.29,-1.539 9.28,-3.101 19.45,-6.261 28.78,-10.121 v 28.039 c -3.12,1.543 -7.04,3.114 -10.93,4.684 z M 2702.56,330.77 v 0 c -5.45,6.199 -11.66,10.859 -19.49,14.031 -11.7,3.898 -28.03,5.48 -52.21,6.23 -24.13,-0.75 -40.47,-2.332 -52.15,-6.23 -7.76,-3.172 -13.96,-7.832 -19.4,-14.031 -2.38,-2.348 -3.94,-5.461 -6.29,-7.809 v -0.75 c 2.35,0 3.91,0.75 6.29,0.75 10.88,2.348 21.73,3.937 32.73,5.461 13.14,1.539 25.66,1.539 38.82,2.348 13.3,0 26.49,-0.809 39.02,-2.348 10.82,-1.524 21.74,-3.113 32.68,-5.461 2.28,0 3.89,-0.75 6.19,-0.75 h 0.8 c -0.8,0 -0.8,0 -0.8,0.75 -2.3,2.348 -3.91,5.461 -6.19,7.809 z m -80.22,262.378 v 0 c 3.15,0.731 5.43,0.731 8.52,0.731 3.09,0 6.28,-0.731 8.61,-0.731 h 7.8 c 7.02,-0.789 13.97,-0.789 20.97,-2.339 v 7.832 4.64 c -7,0.821 -13.95,1.59 -20.97,2.309 v -5.481 h -7.8 v 5.481 h -8.61 -8.52 v -4.61 c -2.32,-0.871 -5.45,-0.871 -7.81,-0.871 v 5.481 c -6.97,-0.719 -13.96,-1.488 -21.04,-2.309 v -4.64 -7.832 c 7.08,1.55 14.07,1.55 21.04,2.339 z m 86.41,-193.046 v 0 c -2.3,0 -3.91,0.769 -6.19,0.769 -7.05,-3.883 -10.94,-5.5 -20.3,-5.5 -9.33,0 -23.35,1.617 -51.4,2.32 -27.97,-0.703 -41.99,-2.32 -51.35,-2.32 -9.32,0 -13.21,1.617 -20.2,5.5 -2.38,0 -3.94,-0.769 -6.29,-0.769 -0.81,-0.821 -2.38,-0.821 -3.84,-1.59 -1.61,0 -2.32,-0.821 -3.86,-0.821 1.54,-2.32 2.25,-4.64 3.86,-6.98 1.46,-2.301 3.03,-4.691 3.84,-6.231 2.35,-3.941 3.91,-7.011 6.29,-9.332 5.44,-9.367 10.08,-14.82 16.32,-17.136 10.88,-5.461 25.7,-3.903 55.23,-2.321 29.62,-1.582 44.47,-3.14 55.32,2.321 6.24,2.316 10.93,7.769 16.38,17.136 2.28,2.321 3.89,5.391 6.19,9.332 1.59,1.54 2.32,3.93 3.89,6.231 1.52,2.34 2.41,4.66 3.87,6.98 -1.46,0 -2.35,0.821 -3.87,0.821 -1.57,0.769 -2.3,0.769 -3.89,1.59"
         style="fill:#fff200;fill-opacity:1;fill-rule:nonzero;stroke:none"
         id="path20" /></g></g></svg>
