<?xml version="1.0" encoding="UTF-8"?>
<svg xmlns="http://www.w3.org/2000/svg" width="171" height="52" viewBox="0 0 171 52" fill="none">
  <g clip-path="url(#clip0_160_3)">
    <path d="M52.52 0H0V5.97H2.39V35.81H24.76V44.16C23.36 44.75 22.37 46.13 22.37 47.74C22.37 49.88 24.11 51.62 26.25 51.62C28.39 51.62 30.13 49.88 30.13 47.74C30.13 46.13 29.14 44.75 27.74 44.16V35.81H50.12V5.97H52.5V0H52.52ZM47.15 32.83H5.38V5.97H47.15V32.82V32.83Z" fill="#080F33"></path>
    <path d="M41.18 11.9399H33.22V26.8599H41.18V11.9399Z" fill="#080F33"></path>
    <path d="M19.3 21.8799H11.34V26.8499H19.3V21.8799Z" fill="#080F33"></path>
    <path d="M30.24 16.9099H22.28V26.8599H30.24V16.9099Z" fill="#080F33"></path>
    <path d="M64.25 23.84C63.45 23.51 62.73 23.01 62.06 22.34L63.8 20.19C64.25 20.68 64.74 21.06 65.27 21.31C65.8 21.56 66.29 21.69 66.76 21.69C67.09 21.69 67.36 21.64 67.58 21.55C67.8 21.46 67.95 21.33 68.04 21.18C68.13 21.03 68.17 20.86 68.17 20.66C68.17 20.32 68.04 20.05 67.78 19.85C67.52 19.65 67.03 19.43 66.3 19.19C66 19.09 65.72 18.99 65.49 18.89C65.25 18.79 64.99 18.68 64.72 18.54C64.44 18.4 64.2 18.26 64 18.11C63.8 17.96 63.6 17.79 63.4 17.58C63.2 17.38 63.04 17.16 62.92 16.93C62.8 16.7 62.7 16.44 62.62 16.14C62.54 15.84 62.5 15.52 62.5 15.17C62.5 14.49 62.68 13.86 63.05 13.29C63.41 12.72 63.91 12.28 64.54 11.95C65.17 11.62 65.86 11.46 66.61 11.45C68.18 11.43 69.63 11.97 70.97 13.09L69.29 15.28C68.29 14.48 67.43 14.07 66.7 14.07C66.35 14.07 66.07 14.16 65.87 14.33C65.67 14.5 65.56 14.74 65.56 15.05C65.56 15.33 65.68 15.56 65.93 15.74C66.19 15.93 66.67 16.16 67.38 16.43C68.44 16.84 69.15 17.15 69.52 17.35C70.29 17.78 70.8 18.32 71.05 18.97C71.19 19.36 71.27 19.8 71.27 20.3C71.27 20.87 71.18 21.39 70.99 21.85C70.8 22.31 70.55 22.7 70.24 23C69.93 23.3 69.58 23.55 69.17 23.76C68.76 23.97 68.36 24.11 67.95 24.2C67.54 24.29 67.12 24.33 66.7 24.33C65.87 24.33 65.05 24.16 64.26 23.83L64.25 23.84Z" fill="#080F33"></path>
    <path d="M73.73 11.6299H76.7V21.5399H81.96V24.1699H73.74V11.6299H73.73Z" fill="#080F33"></path>
    <path d="M84.37 11.6299H87.35V24.1699H84.37V11.6299Z" fill="#080F33"></path>
    <path d="M90.51 11.6299H94.85C95.83 11.6299 96.72 11.7899 97.54 12.0999C98.36 12.4099 99.04 12.8399 99.6 13.3899C100.16 13.9399 100.59 14.5999 100.9 15.3799C101.21 16.1599 101.36 16.9999 101.36 17.9199C101.36 18.8399 101.21 19.6799 100.92 20.4499C100.62 21.2199 100.21 21.8799 99.66 22.4299C99.12 22.9799 98.44 23.4099 97.63 23.7099C96.82 24.0099 95.91 24.1699 94.91 24.1699H90.52V11.6299H90.51ZM94.72 21.5399C95.15 21.5399 95.54 21.4799 95.92 21.3599C96.3 21.2399 96.62 21.0699 96.91 20.8499C97.2 20.6299 97.44 20.3699 97.65 20.0699C97.86 19.7699 98.01 19.4399 98.12 19.0699C98.23 18.6999 98.28 18.3199 98.28 17.9099C98.28 17.2199 98.13 16.5999 97.85 16.0399C97.56 15.4799 97.16 15.0499 96.64 14.7299C96.12 14.4099 95.55 14.2599 94.92 14.2599H93.42V21.5299H94.72V21.5399Z" fill="#080F33"></path>
    <path d="M103.95 11.6299H112.14V14.2699H106.85V16.6699H111.03V19.2699H106.85V21.5499H112.51V24.1799H103.95V11.6399V11.6299Z" fill="#080F33"></path>
    <path d="M116.83 23.78C116.07 23.46 115.4 22.98 114.81 22.34L115.46 21.56C115.92 22.11 116.48 22.54 117.15 22.83C117.81 23.13 118.49 23.27 119.19 23.27C120.06 23.27 120.77 23.06 121.33 22.64C121.89 22.22 122.17 21.67 122.17 20.99C122.17 20.22 121.87 19.61 121.26 19.17C120.93 18.93 120.32 18.64 119.45 18.3C119.2 18.2 119.05 18.15 119.02 18.14C118.04 17.75 117.36 17.46 116.98 17.24C116.04 16.7 115.5 16.01 115.36 15.18C115.33 15.02 115.32 14.86 115.32 14.69C115.32 14.25 115.42 13.83 115.61 13.44C115.8 13.05 116.06 12.71 116.39 12.43C116.72 12.15 117.12 11.93 117.58 11.77C118.04 11.61 118.53 11.53 119.04 11.53C119.69 11.53 120.34 11.65 121 11.89C121.66 12.13 122.28 12.47 122.86 12.93L122.22 13.74C121.73 13.34 121.2 13.04 120.64 12.83C120.08 12.62 119.55 12.51 119.03 12.51C118.7 12.51 118.37 12.56 118.06 12.65C117.75 12.74 117.47 12.87 117.22 13.05C116.97 13.23 116.77 13.45 116.62 13.72C116.47 14 116.39 14.3 116.39 14.64C116.39 15.31 116.69 15.85 117.3 16.26C117.6 16.47 118.18 16.74 119.03 17.07C119.17 17.12 119.29 17.16 119.37 17.2C120.39 17.61 121.05 17.89 121.34 18.04C122.16 18.46 122.71 18.97 122.99 19.57C123.16 19.95 123.25 20.39 123.25 20.9C123.25 21.57 123.07 22.16 122.71 22.68C122.35 23.2 121.86 23.59 121.25 23.86C120.64 24.13 119.96 24.26 119.21 24.26C118.4 24.26 117.62 24.1 116.86 23.79L116.83 23.78Z" fill="#080F33"></path>
    <path d="M126.68 11.6299H127.67V17.7699H135.05V11.6299H136.04V24.1699H135.05V18.7099H127.67V24.1699H126.68V11.6299Z" fill="#080F33"></path>
    <path d="M143.33 23.76C142.55 23.43 141.89 22.98 141.35 22.41C140.81 21.84 140.39 21.17 140.09 20.38C139.79 19.6 139.64 18.77 139.64 17.88C139.64 16.99 139.79 16.17 140.09 15.4C140.39 14.62 140.81 13.95 141.35 13.38C141.89 12.81 142.55 12.36 143.33 12.03C144.11 11.7 144.96 11.53 145.86 11.53C146.72 11.53 147.52 11.68 148.28 11.99C149.04 12.3 149.7 12.72 150.25 13.27C150.8 13.82 151.25 14.49 151.57 15.28C151.89 16.08 152.05 16.94 152.05 17.87C152.05 18.8 151.89 19.68 151.57 20.48C151.25 21.28 150.81 21.96 150.25 22.5C149.69 23.04 149.03 23.47 148.28 23.78C147.52 24.09 146.71 24.24 145.86 24.24C144.95 24.24 144.11 24.07 143.33 23.74V23.76ZM147.87 22.88C148.5 22.62 149.04 22.25 149.51 21.79C149.97 21.32 150.34 20.75 150.61 20.08C150.88 19.4 151.02 18.68 151.02 17.9C151.02 17.12 150.88 16.39 150.61 15.72C150.34 15.05 149.97 14.48 149.51 14.02C149.05 13.56 148.5 13.19 147.87 12.93C147.24 12.67 146.57 12.54 145.87 12.54C145.11 12.54 144.41 12.68 143.76 12.96C143.11 13.24 142.56 13.63 142.12 14.11C141.68 14.6 141.33 15.17 141.08 15.82C140.83 16.47 140.7 17.17 140.7 17.9C140.7 18.49 140.78 19.06 140.94 19.6C141.1 20.14 141.33 20.64 141.63 21.08C141.93 21.52 142.3 21.91 142.71 22.24C143.13 22.57 143.61 22.83 144.15 23.01C144.69 23.19 145.26 23.28 145.87 23.28C146.58 23.28 147.24 23.15 147.87 22.88Z" fill="#080F33"></path>
    <path d="M170.57 11.6299L166.54 24.1699H165.51L162.3 13.0999H162.28L159.05 24.1699H158.02L153.99 11.6299H155.04L158.52 22.5299H158.55L161.72 11.6299H162.85L166 22.5599H166.03L169.5 11.6299H170.56H170.57Z" fill="#080F33"></path>
  </g>
  <defs>
    <clipPath id="clip0_160_3">
      <rect width="170.57" height="51.62" fill="white"></rect>
    </clipPath>
  </defs>
</svg>
