
<svg xmlns="http://www.w3.org/2000/svg" xmlns:xlink="http://www.w3.org/1999/xlink" preserveAspectRatio="xMidYMid meet" version="1.0" viewBox="0.0 0.4 217.5 193.4" zoomAndPan="magnify" style="fill: rgb(0, 0, 0);" original_string_length="7222" width="158.01625683632284px" height="139.62891058627798px"><g id="__id1_se95xfc3lk"><path d="M54.9,193.8c-1.8,0-3.5-0.1-5-0.3s-3.1-0.3-5.2-0.6c-1.9-0.2-3.6-0.5-5.2-0.8s-3.4-0.7-4.9-1 c-1.7-0.4-3.3-0.9-4.8-1.4l-0.2-0.1c-1.5-0.5-3.1-1-4.5-1.7c-1.5-0.7-2.9-1.6-4.3-2.6c-1.4-1-2.7-2.1-3.9-3.3 c-0.6-0.6-1.1-1.2-1.6-1.8c-0.7-0.8-1.2-1.5-1.7-2.1c-1.2-1.6-2.2-3-3.1-4.2c-0.5-0.8-1-1.5-1.4-2.2s-0.9-1.5-1.2-2.1 c-0.8-1.5-1.5-3-2.1-4.6c-0.6-1.6-1.2-3.2-1.7-4.8S3.3,157,3,155.4l-0.2-1c-0.3-1.3-0.6-2.6-0.9-3.9c-0.3-1.5-0.6-3.2-0.8-5 c-0.1-0.9-0.2-1.8-0.3-2.6v-0.3c-0.1-0.7-0.2-1.5-0.2-2.2c-0.1-1.3-0.2-2.7-0.2-4v-0.9c0-0.4,0-0.8,0-1.2C0.1,133,0,131.6,0,130.2 s0.1-2.7,0.1-4c0-0.4,0-0.7,0-1.1v-0.6c0.1-1.5,0.1-3.1,0.2-4.7c0.1-1.4,0.1-2.9,0.2-4.3c0.1-2,0.2-4.1,0.3-6.1c0.1-1,0.1-2,0.2-3.1 c0.2-2.5,0.3-5,0.5-7.5c0.1-1.8,0.3-3.6,0.5-5.3c0.2-1.9,0.4-3.6,0.6-5.2c0.2-1.2,0.4-2.4,0.6-3.6c0.1-0.6,0.2-1.1,0.3-1.7 c0.3-1.6,0.5-3.3,0.9-5s0.7-3.2,1-4.8C6,71.6,6.3,69.8,6.7,68c0.3-1.3,0.5-2.7,0.8-4l0.2-1.2c0.2-0.9,0.4-1.8,0.5-2.6 s0.3-1.6,0.5-2.4c0.1-0.4,0.1-0.8,0.2-1.1c0.2-1.3,0.5-2.6,0.8-3.9c0.2-0.7,0.3-1.5,0.5-2.2c0.2-1,0.5-2,0.7-3 c0.3-1.3,0.6-2.7,0.9-4.3c0.1-1.1,0.2-2,0.2-2.8l0,0l0,0l0,0c0.1-1.1,0.2-2.3,0.4-3.6c0.1-1,0.3-2.2,0.5-3.5c0.2-1,0.4-2.2,0.7-3.4 c0.1-0.6,0.3-1.1,0.5-1.6c0.2-0.5,0.4-1,0.7-1.4c0.1-0.3,0.1-0.7,0.2-1l0.1-0.5v-0.2v-0.1c0,0,0,0,0,0l0,0v-0.1c0,0,0-0.1,0-0.1 c0-0.1,0-0.1,0-0.2l0,0l0,0c0,0.1,0,0.2,0,0.3v0.2c0,0.2-0.1,0.4-0.1,0.6s-0.1,0.4-0.1,0.7l0,0l0,0l0,0l0,0l0.1-0.4 c0-0.3,0.1-0.7,0.5-0.8c0.1,0,0.3-0.1,0.4-0.1h1.4c1.3-0.1,2.5-0.2,3.8-0.4l0.7-0.1c1-0.2,2-0.2,3-0.3H25c0.8,0,1.6,0,2.4,0h1.2h0.6 h1.6h1.5H33c1,0,2.2,0,3.5,0.1c1.4,0.1,2.8,0.2,4.2,0.4h0.2c1.3,0.1,2.7,0.2,4,0.3l1.2,0.1c1,0.1,2.1,0.1,3.2,0.2h-0.1l0.9,0.1 c1.2,0.1,2.4,0.2,3.6,0.3s2.5,0.1,3.8,0.3l1,0.1l0.7,0.1l0.8,0.1l0.8,0.1c0.6,0.1,1.2,0.3,1.8,0.5c0.2,0.1,0.4,0.1,0.6,0.2 s0.4,0.1,0.6,0.2c0.4,0.1,0.7,0.3,1,0.5c0.3,0.3,0.6,0.7,0.8,1.1c0.1,0.5,0.2,0.9,0.3,1.4c0.1,1.1,0,2.1-0.2,3.2 c-0.1,0.7-0.2,1.5-0.4,2.2v0.5c0,1.5,0,2.8,0,4c0,0.7,0,1.3-0.1,1.9v0.9v0.4c0,0.8-0.1,1.6-0.1,2.3l0,0L65,46.7 c-0.1,0.6-0.1,1-0.2,1.5s-0.1,0.8-0.2,1.2v0.4c-0.3,3.6-0.7,7.2-1.1,10.5l-0.2,1.3c-0.3,2.7-0.7,5.5-0.9,8.2v0.1v0.4 c-0.1,1.3-0.3,2.6-0.4,3.8c-0.1,0.9-0.2,1.8-0.3,2.7s-0.2,1.8-0.2,2.7c-0.1,0.7-0.1,1.5-0.2,2.2c0,0.4-0.1,0.9-0.1,1.3 c-0.1,1.2-0.2,2.5-0.3,3.8c-0.1,1.5-0.2,3-0.2,4.4v1c-0.1,1.6-0.1,3.3-0.1,5c0,0.5,0,0.9,0,1.4c0,0.6,0,1.2,0,1.9s0,1.1,0,1.6v1.4 c0,2.2,0.1,4.3,0.1,6.4c0,1.1,0.1,2,0.2,2.9s0.2,1.8,0.3,2.6v0.4c0.1,0.6,0.2,1.2,0.2,1.7c0.2,1.2,0.3,2.5,0.5,3.8 c0.3,1.8,0.8,3.6,1.3,5.3c0.5,1.6,1,3.1,1.7,4.6c0.3,0.6,0.6,1.2,1,1.8c0.7,1.1,1.4,2.2,2.1,3.3c0.5,0.6,1,1.2,1.5,1.7 s0.9,0.8,1.4,1.2s1.3,0.9,2,1.3s1.7,0.9,2.6,1.2c1.1,0.4,2,0.7,3,0.9l1,0.2c0.5,0,0.9,0.1,1.4,0.1h0.2c0.5,0,1-0.1,1.5-0.1 s1-0.2,1.5-0.3s1-0.3,1.4-0.6c0.7-0.3,1.3-0.7,1.9-1s0.8-0.6,1.2-0.9c0.6-0.5,1.2-1.1,1.8-1.7l0.3-0.3l0.5-0.5l0,0l0,0l0.1-0.1l0,0 l0,0l0,0c0.5-0.5,1-1,1.4-1.5s1-1.1,1.5-1.9c0.9-1.3,1.7-2.6,2.5-3.9l0.3-0.6c0.7-1.2,1.4-2.4,2.1-3.7c1.1-2.1,2.2-4.2,3.2-6.5 c1.2-2.5,2.2-5.1,2.9-7v0.1l0.7-1.7c1-2.6,1.9-5.1,2.8-7.6l1.1-3c0.8-2.3,1.7-4.6,2.5-6.9c1.1-3.2,2.1-6.3,3.2-9.7l0.6-1.8 c0.8-2.6,1.7-5.3,2.5-8c0.6-1.8,1.2-3.7,1.7-5.5l1.3-4.1c1-3.2,2-6.4,3-9.6l0.4-1.2c0.9-2.8,1.8-5.7,2.8-8.4 c1.2-3.2,2.5-6.5,3.8-9.7l0.1-0.3c0.7-1.8,1.4-3.4,2.1-4.8s1.3-2.8,2.3-4.6c0.8-1.4,1.6-2.9,2.6-4.6c0.7-1.3,1.6-2.8,2.6-4.2 s1.9-2.6,3.2-4.1c1.1-1.3,2.3-2.5,3.6-3.7c1.3-1.1,2.7-2.1,4.2-3c1.4-0.9,2.9-1.7,4.4-2.4c0.8-0.4,1.7-0.7,2.5-1 c0.9-0.3,1.7-0.5,2.5-0.7c1.7-0.4,3.4-0.7,5-1c2-0.3,4.1-0.4,6.1-0.4c1.5,0,3.1,0.1,4.6,0.3c1.2,0.1,2.4,0.3,3.5,0.6 c0.1,0,0.3,0.1,0.4,0.1c0.4,0.1,0.8,0.2,1.2,0.3c0.7,0.2,1.5,0.4,2.4,0.6s1.8,0.6,2.6,0.9c3.2,1.3,6.3,2.9,9.2,4.8 c1.4,0.9,2.8,2,4.1,3.2c1.2,1.2,2.3,2.4,3.2,3.8l0.4,0.5l0.3,0.4c0.9,1.1,1.7,2.3,2.5,3.4c0.9,1.4,1.7,3,2.4,4.4 c0.6,1.2,1.2,2.5,1.9,4.2c0.6,1.4,1.1,2.8,1.6,4.2l0.1,0.2l0,0c0.1,0.3,0.2,0.5,0.2,0.8c0.4,1.2,0.7,2.5,1,3.7l0.1,0.5 c0.2,0.8,0.4,1.7,0.6,2.5s0.3,1.7,0.4,2.6c0.2,1.6,0.4,3.4,0.6,5.1s0.4,3.6,0.6,5.2c0.1,0.6,0.1,1.2,0.2,1.8 c0.1,1.1,0.2,2.2,0.3,3.3c0.1,1.5,0.1,3,0.2,4.5v1v0.3c0,1.5,0.1,3,0.1,4.6c0,0.6-0.1,1.2-0.1,1.8l-0.1,0.7l-0.1,2.3 c-0.1,1.1-0.2,2.2-0.3,3.3c0,0.6-0.1,1.1-0.1,1.6c-0.1,1.7-0.2,3.3-0.3,4.8s-0.2,3.2-0.4,5l0,0v0.3v0.1V88c-0.2,2.1-0.4,4.2-0.6,6.3 c-0.1,0.9-0.1,1.8-0.2,2.6c-0.1,0.7-0.1,1.4-0.2,2.1c-0.1,0.9-0.1,1.7-0.2,2.6c-0.1,1-0.2,2-0.3,3c-0.1,0.6-0.1,1.1-0.2,1.7 s-0.1,1-0.1,1.5c-0.1,1.1-0.2,2.3-0.3,3.4c-0.1,0.8-0.2,1.6-0.3,2.5c-0.1,0.8-0.2,1.7-0.3,2.5c-0.4,3.6-0.9,7-1.4,10 c-0.2,1.2-0.4,2.4-0.6,3.5l-0.2,1.3c-0.2,1.5-0.5,3.1-0.8,5.1l-0.1,1c-0.2,1.3-0.4,2.7-0.6,4c-0.1,0.8-0.2,1.6-0.3,2.3 s-0.2,1.8-0.3,2.6s-0.3,1.9-0.4,2.8c-0.1,0.7-0.2,1.3-0.3,2s-0.2,1.6-0.3,2.3s-0.2,1.6-0.3,2.4c-0.2,1.3-0.5,2.6-0.8,3.9 c-0.4,1.2-0.7,2.5-1.1,3.9c-0.2,0.8-0.4,1.6-0.5,2.3c0,0.4,0,0.8-0.2,1.1c-0.3,0.7-0.9,1.1-1.6,1.3c-0.2,0-0.5,0.1-0.7,0.1h-0.2 l-0.5-0.1h-0.1h-0.3c-0.2,0-0.4,0-0.6,0.1l-0.8,0.2c-0.3,0.1-0.7,0.2-1,0.2c-0.9,0.1-1.8,0.2-2.6,0.3c-1.4,0.1-2.8,0.1-4.1,0.1 h-11.8c-1,0-2.3,0-3.5-0.1s-2.7-0.2-4-0.4h-0.4l-1.9-0.2l-2.7-0.2c-1.4-0.1-2.8-0.4-4.2-0.7l-0.3-0.1l-1.1-0.2 c-1-0.2-2.1-0.4-3.1-0.7h-0.1l-1.3-0.3l-0.4-0.1l-0.5-0.1l-0.6-0.1c-0.3,0-0.7-0.1-1-0.2c-0.2-0.1-0.5-0.2-0.7-0.3l-0.4-0.2 c-0.2-0.1-0.4-0.2-0.6-0.4l0,0c0,0.1,0,0.1,0,0.2l0,0v-0.1c0,0,0-0.1,0-0.1v-0.1c0-0.1-0.1-0.1-0.1-0.2c-0.1-0.3-0.1-0.7,0-1 c0-0.1,0-0.2,0.1-0.4v-0.8c0-0.6,0-1.2,0-1.8c0-1.5,0.1-3.2,0.1-5c0.1-2.4,0.2-4.9,0.4-7.4c0.1-0.9,0.1-1.9,0.2-2.8 c0.1-1.7,0.3-3.3,0.4-4.9s0.3-3.4,0.6-5.2l0.1-0.8c0.2-1.4,0.4-2.8,0.6-4.1c0.2-1.7,0.4-3.4,0.6-5.2l0.1-1c0.3-3.1,0.7-6.3,1.1-9.4 c0.1-1,0.2-1.9,0.4-2.8c0.3-2.5,0.7-5.2,1-7.7l0.1-0.6c0.1-1,0.2-1.9,0.4-2.9l0.1-0.9c0.1-0.9,0.2-1.8,0.4-2.8 c0.3-2.3,0.5-4.6,0.8-6.8v-0.4c0.3-3.3,0.5-6.7,0.4-10c0-0.5-0.1-1.1-0.1-1.7s-0.1-1.1-0.2-1.6V76c-0.1-0.6-0.2-1.1-0.3-1.7 s-0.3-1.2-0.5-1.8s-0.3-0.9-0.5-1.4s-0.3-0.6-0.5-0.9c-0.1-0.1-0.1-0.2-0.2-0.3l-0.2-0.3l-0.2-0.1l-0.3-0.2l-0.2-0.1l-0.2-0.1 c-0.4-0.1-0.9-0.2-1.3-0.2h-0.6c-0.1,0-0.2,0-0.3,0h-0.1h-0.1l0,0l0,0l-0.3,0.3c-0.2,0.2-0.4,0.4-0.6,0.7c-0.3,0.4-0.6,0.9-1,1.6 s-0.7,1.4-1,2.2c-0.7,1.9-1.3,4-1.8,5.8l-0.1,0.2c-0.5,1.9-1.1,3.8-1.5,5.8l-0.1,0.6c-0.1,0.4-0.2,0.9-0.3,1.3l0,0v0.2l-0.1,0.3 c-0.3,1.1-0.5,2.2-0.8,3.3l0,0l0,0l0,0l-0.1,0.3c-0.4,1.5-0.7,3-1.1,4.5c-0.2,0.9-0.4,1.7-0.6,2.6l-0.6,2.5 c-0.6,2.4-1.1,4.8-1.7,7.2c-0.3,1.1-0.5,2.2-0.8,3.3c-0.4,1.6-0.8,3.3-1.2,4.9v0.1c-0.3,1.2-0.6,2.5-0.9,3.8l-0.4,1.4 c-1,4.1-1.9,7.3-2.8,10.2l-0.3,0.9c-0.4,1.3-0.9,2.7-1.3,4s-1,3-1.6,4.4l-0.2,0.5c-0.6,1.5-1.2,3.2-1.9,5.2c-0.5,1.4-1.2,3.2-2,4.9 s-1.5,3.2-2.4,4.8s-1.8,3.1-2.8,4.6s-1.9,2.7-2.9,3.9l-0.3,0.4l-0.7,0.9c-0.8,1-1.6,2.1-2.5,3.1c-1.2,1.4-2.4,2.7-3.8,4 c-0.6,0.6-1.2,1.2-1.8,1.8s-1.4,1.3-2.2,1.9c-1,0.8-2,1.4-3.1,2.1l-1.2,0.8l-0.8,0.5l-1.3,0.8c-0.8,0.5-1.6,1-2.4,1.4 s-1.8,0.9-2.8,1.3l-1.4,0.6c-0.7,0.3-1.4,0.7-2.1,1.1s-1.3,0.7-1.9,1c-1.4,0.7-2.8,1.3-4.3,1.8c-1.4,0.5-2.9,1-4.7,1.5 c-3.5,1-7,1.7-10.6,2.1c-0.8,0.1-1.7,0.2-2.5,0.3s-1.7,0.2-2.5,0.3l-1.5,0.2c-1.2,0.1-2.4,0.3-3.6,0.4c-1.4,0.1-2.8,0.2-4,0.3h-0.6 c-1.1,0-2.2,0-3.4,0L54.9,193.8z" style="fill: rgb(135, 162, 246);"/></g></svg>